<svg width="202" height="190" viewBox="0 0 202 190" fill="none" xmlns="http://www.w3.org/2000/svg">
<g clip-path="url(#clip0_7984_5730)">
<path fill-rule="evenodd" clip-rule="evenodd" d="M55.8376 180.158C64.4096 180.423 72.5828 180.689 81.1547 180.158C94.9097 179.295 135.178 180.821 144.016 180.158C144.68 180.092 147.006 180.821 147.006 180.158C147.404 175.448 147.67 127.482 146.474 124.165C145.345 120.848 139.63 104.992 132.321 97.6283C130.261 95.638 127.204 94.8419 125.476 92.52C124.014 89.999 124.147 88.5394 122.685 87.2126C122.087 86.6155 120.559 86.4165 119.496 85.6204C118.366 84.4926 119.429 82.1042 118.964 80.5784C118.034 76.7305 114.579 74.2759 110.791 73.6788C105.542 72.4183 99.9598 73.6125 97.4348 77.7257C96.5045 79.2515 96.9696 81.1091 95.84 83.5638C95.9064 85.4214 93.7801 85.8857 92.4511 86.6155L89.8596 89.2029C81.8857 93.6478 72.5828 96.1024 65.6057 102.073C59.6917 108.044 53.7777 115.01 51.1862 123.104C50.6546 125.293 50.4553 127.615 50.2559 129.871C49.5914 136.505 47.7973 142.874 46.269 149.309C44.5413 157.403 42.8801 166.027 45.2722 174.187C46.0032 175.978 54.3093 180.092 55.8376 180.158Z" fill="white"/>
<path fill-rule="evenodd" clip-rule="evenodd" d="M46.1362 176.244C45.6046 175.514 45.1395 174.652 44.7408 173.789C44.2092 172.396 44.0099 170.87 43.8105 169.411C43.6112 167.686 43.4783 165.894 43.4783 164.103C43.4783 160.388 43.877 156.673 44.4086 153.024C44.9402 149.508 45.6046 145.992 46.3356 142.542L46.4685 142.078C47.2659 138.628 47.9304 135.178 48.7277 131.795C49.5916 128.345 51.5851 121.976 51.4522 122.44L51.8509 121.379C53.0469 118.128 54.3759 114.877 56.0372 111.826C59.3596 105.656 63.8117 100.149 69.5263 96.1026C72.3836 94.046 75.5067 92.3875 78.8292 91.1933C82.2181 89.9328 85.6734 89.2694 89.2617 89.004C89.3946 89.004 89.3946 89.0704 89.3946 89.203H89.5275C89.5939 88.8713 89.6604 88.5396 89.8597 88.2079C90.3249 87.4781 91.1887 87.0138 91.9197 86.6157L92.119 86.5494C92.9828 86.0186 93.8467 85.5542 94.777 85.3552C94.8434 85.3552 94.8434 85.3552 94.777 85.4215C94.1125 86.1513 93.3151 86.7484 92.5841 87.3455L92.4512 87.4118C91.8532 87.9425 90.9894 88.4733 90.9229 89.3357C90.9229 90.3309 91.1223 91.3923 91.1887 92.3875C91.2552 93.3826 91.3216 94.3777 91.3216 95.3729C91.3881 98.9553 91.3216 102.538 90.9894 106.12L92.3848 105.191C94.5776 103.732 96.7704 102.272 99.0297 100.879C100.359 100.017 101.887 99.3534 103.548 99.3534C104.013 99.3534 104.545 99.4197 105.01 99.5524C104.479 99.0217 103.947 98.4909 103.415 98.0265C102.552 97.1641 101.688 96.368 100.824 95.5055L98.3652 93.1172L95.9066 90.7289C95.1092 89.9991 94.2454 89.2694 94.3118 88.1416C94.3783 87.2128 94.8434 86.284 95.1757 85.3552C95.2421 85.2225 95.2421 85.0898 95.3086 84.9571C95.973 82.7679 96.3717 80.5122 97.0362 78.3229C97.1691 78.1903 97.4349 78.2566 97.4349 78.4556C97.7007 80.5786 97.4349 82.7679 97.1691 84.8908C97.0362 85.8859 96.9698 86.9474 96.7704 87.9425C96.7704 88.0752 96.704 88.1416 96.704 88.2742C96.7704 88.4069 96.9698 88.5396 97.0362 88.606L97.4349 89.004L98.2323 89.8001C99.7606 91.326 101.355 92.7855 102.884 94.3114L105.143 96.5007C105.94 97.2304 106.804 97.9602 107.469 98.8226C107.867 99.287 107.934 99.8178 107.535 100.349C107.336 100.614 107.004 100.747 106.671 100.813C106.804 101.012 106.871 101.211 106.937 101.41C107.07 101.874 106.605 102.405 106.073 102.272C105.542 102.073 105.077 101.675 104.479 101.476C103.88 101.277 103.282 101.277 102.684 101.344C102.419 101.41 102.153 101.476 101.887 101.543C104.678 102.803 107.735 103.599 110.858 103.666C111.522 103.666 112.12 103.666 112.718 103.666C113.781 103.599 114.845 103.467 115.841 103.201C116.639 103.002 117.436 102.737 118.233 102.405C118.632 102.272 118.964 102.073 119.363 101.874C119.43 101.808 120.958 100.946 121.024 100.813C121.091 100.68 121.024 100.614 121.024 100.548C121.024 100.481 120.958 100.415 120.825 100.349C120.36 100.149 119.895 99.9505 119.363 99.9505C118.167 99.9505 116.905 100.813 115.908 101.41C114.845 102.073 113.848 102.803 112.785 103.533H112.718C112.585 103.533 112.519 103.4 112.585 103.268C113.316 102.206 114.313 101.277 115.376 100.481L115.775 100.149C116.705 99.4197 117.835 98.6236 119.031 98.4909C120.493 98.2919 121.955 99.1544 123.217 99.6851L125.476 100.614C125.875 100.747 126.34 100.946 126.739 101.078L125.809 98.0929C125.344 96.6334 124.878 95.1075 124.413 93.648L124.347 93.3826C123.882 91.8567 123.483 90.3309 122.686 88.9377C122.486 88.606 122.287 88.2742 122.088 88.0089C121.888 87.6772 121.755 87.3455 121.49 87.0138C120.958 86.4167 120.161 86.085 119.43 85.8859C119.23 85.8196 119.297 85.6206 119.496 85.5542C120.227 85.4879 120.958 85.6206 121.689 85.9523L121.955 86.085C122.619 86.4167 123.217 86.682 123.749 87.2128C124.878 88.4733 125.41 90.0655 125.942 91.5914L126.074 91.9894C126.274 91.9231 127.603 92.3211 127.802 92.4538C132.786 94.5767 136.64 98.4909 139.497 103.135C142.554 108.177 144.282 113.949 145.677 119.654C146.076 121.445 146.541 123.17 146.939 124.961C147.205 126.288 147.006 125.227 147.205 126.089C148.069 130.202 148.867 134.316 149.531 138.429C151.591 151.167 152.853 164.037 152.787 176.974C152.787 177.239 152.721 177.571 152.521 177.836C152.588 177.77 152.654 177.77 152.721 177.703C153.252 176.907 154.515 177.637 153.983 178.433L153.917 178.566C153.518 179.163 153.186 179.627 152.455 179.959C151.79 180.291 150.993 180.357 150.262 180.357C147.67 180.423 145.079 180.49 142.487 180.49C142.155 177.703 141.956 174.917 141.491 172.131C141.358 171.401 140.295 171.733 140.427 172.396C140.893 175.05 141.026 177.77 141.358 180.423C135.776 180.49 130.261 180.49 124.679 180.49C117.17 180.49 109.662 180.49 102.086 180.49H98.8304C90.1255 180.49 81.4207 180.49 72.7823 180.423H70.7224C69.925 175.58 69.327 170.671 69.327 165.762C69.327 165.032 68.1973 165.032 68.1973 165.762C68.1973 170.671 68.7289 175.58 69.5928 180.423C67.5328 180.423 65.4729 180.423 63.413 180.49L62.3498 180.556C60.2234 180.622 58.1635 180.689 56.0372 180.49C53.7114 180.291 51.3857 179.893 49.2593 178.765C48.3291 178.3 47.4652 177.637 46.8007 176.907L46.1362 176.244ZM120.891 86.8811C120.891 86.8147 120.958 86.7484 120.958 86.8147C122.22 87.2791 121.556 88.9377 121.157 89.9328L121.091 90.1318C120.493 91.724 119.629 93.2499 118.699 94.6431C117.702 96.1026 116.639 97.5621 115.443 98.889C114.911 99.4861 114.379 100.017 113.848 100.548L113.649 100.747C113.117 101.277 112.386 102.272 111.522 102.14C110.592 102.007 110.06 101.012 110.725 100.282C111.19 99.7514 111.854 99.3534 112.386 98.8226C112.918 98.3582 113.449 97.8275 113.914 97.3631C114.911 96.3016 115.908 95.2402 116.772 94.046C117.635 92.9182 118.433 91.7904 119.164 90.5962L119.297 90.3309C119.961 89.4684 121.224 88.0752 120.891 86.8811Z" fill="black"/>
<g clip-path="url(#clip1_7984_5730)">
<path d="M129.252 125.579L122.47 119.645C122.428 119.609 122.375 119.59 122.319 119.59C122.264 119.59 122.21 119.609 122.168 119.645L115.136 125.598L115.438 125.958L117.628 124.104V129.872C117.628 129.903 117.634 129.933 117.646 129.962C117.658 129.99 117.675 130.016 117.696 130.038C117.718 130.059 117.744 130.077 117.772 130.089C117.8 130.1 117.831 130.106 117.861 130.106L126.787 130.093C126.818 130.093 126.848 130.087 126.877 130.075C126.905 130.064 126.931 130.046 126.953 130.024C126.974 130.002 126.992 129.976 127.003 129.947C127.015 129.919 127.02 129.888 127.02 129.857V124.249L128.946 125.934L129.252 125.579ZM121.304 129.631V127.053C121.304 126.917 121.331 126.783 121.382 126.657C121.433 126.531 121.509 126.417 121.604 126.321C121.7 126.225 121.813 126.148 121.937 126.096C122.062 126.044 122.196 126.017 122.331 126.016C122.601 126.018 122.859 126.126 123.05 126.319C123.241 126.511 123.349 126.771 123.35 127.043V128.669H123.818V127.043C123.818 126.643 123.66 126.26 123.379 125.977C123.099 125.695 122.718 125.536 122.321 125.536C121.924 125.536 121.543 125.695 121.262 125.977C120.981 126.26 120.824 126.643 120.824 127.043V129.621H118.091L118.094 123.709L122.316 120.133L126.552 123.841V129.622L121.304 129.631Z" fill="white"/>
</g>
<path fill-rule="evenodd" clip-rule="evenodd" d="M114.204 87.8696C111.081 87.8696 108.423 87.0071 106.429 85.5476C103.904 84.6188 100.847 83.292 98.9868 81.8324C98.2559 82.0315 97.3921 81.2353 96.8605 80.8373C93.4051 78.25 90.7471 74.5348 89.9498 70.8196C88.6872 72.3455 86.9595 72.4119 85.2983 71.6821C81.7765 69.6918 81.9094 65.5123 83.172 62.3279C80.514 56.3571 78.6534 40.634 82.7068 34.2651C83.5706 33.3364 84.7667 32.7393 85.6306 31.7441C86.428 30.8817 87.1589 30.0193 88.0892 29.3558C90.88 27.2329 95.6644 26.1051 98.6546 25.5743C111.147 22.8543 120.716 27.6973 132.078 31.8105C131.414 33.469 130.55 34.9286 129.487 36.3218C132.278 37.3832 131.015 39.7052 128.822 40.8994L127.493 40.3023C129.487 47.5336 134.138 65.5123 132.145 71.284C130.617 80.2402 123.573 87.9359 114.204 87.8696Z" fill="white"/>
<path fill-rule="evenodd" clip-rule="evenodd" d="M98.5217 24.712C104.17 23.6505 109.884 23.6505 115.466 25.11C118.323 25.8398 121.048 26.9013 123.772 27.8964C126.63 28.9579 129.487 30.0193 132.411 31.0808C132.677 31.1472 132.942 31.4789 132.809 31.7442C132.211 33.2038 131.48 34.597 130.55 35.9238C131.281 36.3218 131.813 37.118 131.813 37.9804C131.813 39.5726 130.351 40.6341 129.155 41.3638C128.955 41.4965 128.756 41.4965 128.557 41.4302C129.819 46.2732 131.015 51.0498 132.078 55.9591L132.145 56.2908C133.142 61.2001 133.806 66.2421 132.876 71.2178C132.078 75.53 130.151 79.6432 127.095 82.8277C124.171 85.9457 120.251 87.8697 115.931 88.334C111.944 88.7321 107.293 87.8033 104.635 84.6189C104.502 84.4199 104.701 84.1545 104.901 84.2872L105.167 84.4199C107.027 85.4813 108.954 86.3438 111.081 86.6755C113.273 87.0736 115.466 87.0072 117.659 86.5428C125.965 84.6189 130.949 76.5252 131.746 68.4314C132.211 63.3231 131.148 58.2147 129.952 53.2391C128.756 48.0644 127.427 42.8897 125.899 37.7814C125.832 37.5823 125.832 37.4497 125.899 37.2506C124.237 36.3218 122.111 38.3785 120.782 39.2409C119.918 39.838 118.988 40.236 117.925 40.3024C116.795 40.3687 115.732 40.037 114.735 39.5726C112.675 38.7102 110.748 37.715 108.622 37.118C106.496 36.5209 104.236 36.2555 101.977 36.2555C97.9236 36.3218 93.9367 37.317 91.4116 40.7668C90.4813 42.2926 89.8168 43.9512 90.3484 45.6761C90.6142 46.6049 91.1458 47.4673 91.7439 48.2634L91.9432 48.5288C92.4083 49.1922 92.807 49.8556 92.3419 50.6517C92.0761 51.1161 91.611 51.5142 91.3452 51.9122C91.0794 52.3103 90.8136 52.7083 90.6142 53.1727C90.2155 54.0352 90.0826 54.964 90.0162 55.8928C89.9497 57.7503 90.4149 59.5416 90.5478 61.3992C90.5478 61.5982 90.282 61.5982 90.2155 61.4655C89.3517 59.4752 88.8201 57.0869 89.0859 54.8976C89.2188 53.8362 89.551 52.841 90.0162 51.9786C90.282 51.4478 90.6807 50.9835 91.0794 50.5191L91.2123 50.3864C91.4116 50.1873 91.5445 49.9883 91.4116 49.6566C91.2787 49.3912 91.0129 49.1259 90.8136 48.8605C89.6839 47.3346 88.8201 45.5434 89.1523 43.6195C89.4181 41.7619 90.6807 39.9707 92.0096 38.6438C94.9334 35.7248 99.5184 35.0613 103.505 35.194C105.831 35.2604 108.157 35.7248 110.416 36.3882C111.546 36.7199 112.609 37.1843 113.606 37.6487L113.805 37.7814C114.802 38.2458 115.732 38.7765 116.795 39.0419C119.187 39.639 120.649 37.8477 122.51 36.7199L122.576 36.6536C124.038 35.7911 125.965 35.4594 127.294 36.7199C127.427 36.8526 127.427 36.9189 127.493 37.0516C127.56 37.118 127.626 37.2506 127.626 37.3833C127.892 38.3785 128.158 39.4399 128.424 40.4351C128.49 40.3687 128.557 40.3024 128.623 40.3024L128.955 40.1033C129.553 39.7053 130.218 39.2409 130.484 38.5775C130.749 38.0467 130.484 36.9189 129.753 36.9853H129.686C129.088 37.0516 128.623 36.4545 129.088 35.9238C130.151 34.7296 131.015 33.4028 131.613 31.9433L127.294 30.3511C125.832 29.8203 124.437 29.2896 122.975 28.7589L122.178 28.4935C119.52 27.4984 116.862 26.5696 114.137 25.9725C108.688 24.712 102.974 25.0437 97.5249 26.1715L97.1927 26.2379C94.867 26.7686 92.5412 27.3657 90.4813 28.4271C89.4181 28.9579 88.4214 29.555 87.5576 30.4174C86.6937 31.2135 85.9628 32.275 85.0325 33.0047L84.5009 33.4028C83.7035 34.0662 82.9726 34.6633 82.5074 35.6584C82.0423 36.6536 81.8429 37.7814 81.6436 38.9092C81.1784 41.6292 81.0455 44.4156 81.0455 47.202C81.0455 52.1113 81.8429 56.8216 82.8397 61.5982C83.5042 60.404 84.5673 59.3426 86.0292 59.1435C87.5576 58.9445 89.0859 59.7406 89.8833 61.1338C89.8833 61.2001 89.8168 61.2665 89.8168 61.2001C88.5543 60.006 86.4944 59.9396 85.1654 61.1338C83.9693 62.2616 83.5706 64.1192 83.5706 65.7114C83.5706 67.3699 83.9693 69.2939 85.3647 70.289C85.9628 70.687 86.6937 70.9524 87.4247 70.9524C88.1556 70.9524 88.8865 70.6207 89.6175 70.4217C90.1491 70.2227 90.4813 70.8861 90.282 71.2841C90.2155 71.3505 90.2155 71.4168 90.1491 71.5495L90.5478 72.1466C91.6774 74.0042 92.8735 75.8617 94.4018 77.5203C95.2657 78.4491 96.1959 79.3115 97.2591 80.1076L97.392 80.2403C97.7907 80.5057 98.3223 81.1028 98.7875 81.1028C99.1862 81.1028 99.452 80.9037 99.7177 81.3681C99.8506 81.5672 99.8506 81.8325 99.7177 82.0316C98.9868 83.2257 97.4585 82.0315 96.6611 81.4345L96.4617 81.2354C95.3321 80.373 94.3354 79.4442 93.4051 78.4491C91.7439 76.5915 90.282 74.4022 89.6175 71.9475C88.4878 73.009 86.295 72.7437 85.0325 72.1466C81.5771 70.488 81.112 65.6451 82.3745 62.4606C82.3745 62.3943 82.441 62.2616 82.5074 62.1953C80.3146 56.7552 79.6501 50.7181 79.8495 44.9463C79.9159 42.2263 80.1153 39.4399 80.7797 36.7862C81.0455 35.6584 81.5107 34.5306 82.3081 33.6682C83.1719 32.673 84.368 32.1423 85.2318 31.1472L85.4312 30.9481C86.1621 30.152 86.8931 29.3559 87.7569 28.6925C88.7536 27.9627 89.8168 27.3657 90.9465 26.9013C93.3386 25.8398 95.9301 25.2427 98.5217 24.712ZM84.966 64.7163C85.9628 64.2519 87.1589 63.9865 88.2885 64.1855H88.4214C89.4181 64.3182 91.0794 64.7163 91.2123 65.8441C91.2787 66.2421 91.0794 66.6402 90.6142 66.6402C90.0826 66.6402 89.8168 66.3748 89.4181 66.0431C89.0194 65.7777 88.6207 65.5124 88.1556 65.3133C87.1589 64.9153 86.1621 64.7826 85.0989 64.9816C84.8996 64.9816 84.8331 64.7826 84.966 64.7163Z" fill="black"/>
<path fill-rule="evenodd" clip-rule="evenodd" d="M116.789 76.2674C115.859 75.8693 114.995 75.2722 114.397 74.4098C114.198 74.1444 114.131 73.8127 114.198 73.5473C114.264 73.2156 114.464 72.9503 114.663 72.7512C114.929 72.5522 115.195 72.4859 115.527 72.4859C115.793 72.5522 116.058 72.6849 116.258 72.9503L116.324 73.0166C116.723 73.481 117.188 73.9454 117.72 74.2108C118.251 74.4761 118.849 74.6088 119.447 74.5425C120.577 74.4098 121.374 73.8127 122.238 72.9503C122.371 72.8176 122.438 72.7512 122.571 72.6186C122.637 72.4859 122.703 72.4195 122.836 72.4195C122.969 72.3532 123.102 72.3532 123.169 72.4195C123.301 72.4859 123.368 72.5522 123.434 72.6186C123.501 72.6849 123.567 72.8176 123.501 72.9503C123.434 73.8127 122.969 74.6088 122.305 75.2059C121.574 75.8693 120.643 76.3337 119.713 76.5327C118.716 76.7981 117.72 76.6654 116.789 76.2674ZM120.178 62.7336C121.242 63.397 122.836 64.8565 121.707 66.4487C120.378 67.8419 118.451 66.2497 117.454 65.5199C116.59 64.9229 115.593 66.3824 116.391 67.0458C123.301 72.1542 126.092 62.8663 120.643 61.9375C120.112 61.8711 119.913 62.5346 120.178 62.7336ZM107.819 56.8291C107.952 55.3696 110.145 55.0379 110.344 56.4974C110.543 57.7579 110.277 58.9521 109.746 60.1462C109.214 61.2741 107.819 60.7433 107.686 59.7482C107.553 58.355 107.752 57.7579 107.819 56.8291ZM124.697 56.1657C125.029 55.7677 125.428 55.5023 125.959 55.635C127.621 56.0994 127.155 58.4877 126.557 59.6155C126.225 60.2126 125.228 60.4116 124.763 59.8809C124.032 58.9521 123.634 57.1608 124.63 56.2984C124.63 56.2984 124.63 56.2321 124.697 56.1657ZM109.746 50.4603L110.012 50.394C110.809 50.2613 111.872 50.1286 112.404 50.792C112.736 51.1237 112.802 51.7871 112.404 52.1188C111.673 52.7159 110.875 52.4506 110.012 52.5169C109.281 52.5832 108.616 52.6496 107.952 52.8486C106.423 53.2467 105.227 54.0428 103.898 54.9052C103.699 55.0379 103.566 54.7725 103.633 54.6398C104.363 53.1803 105.825 51.9862 107.287 51.2564C108.085 50.9247 108.882 50.593 109.746 50.4603ZM123.169 49.7969L123.368 49.8632C125.561 50.3276 128.418 51.2564 129.481 53.3793C129.548 53.7111 129.481 53.7774 129.415 53.7774C129.415 53.8437 129.348 53.8437 129.215 53.9101C129.149 53.9101 129.149 53.9101 129.083 53.9101C128.617 53.7774 128.219 53.6447 127.886 53.4457L127.488 53.2467C127.023 53.0476 126.557 52.7823 126.092 52.6496C125.029 52.3179 123.966 52.0525 122.903 51.9198C122.637 51.9198 122.438 51.7871 122.238 51.6545C122.039 51.5218 121.906 51.3227 121.906 51.1237C121.84 50.792 121.84 50.593 122.039 50.3276C122.172 50.1286 122.371 49.9959 122.571 49.8632C122.703 49.7969 122.903 49.7969 123.169 49.7969Z" fill="black"/>
<path fill-rule="evenodd" clip-rule="evenodd" d="M89.5418 61.5557C90.4721 61.5557 90.9373 63.8113 90.9373 63.8113C93.4623 68.1899 95.9209 72.5021 100.24 75.4875C105.024 77.4114 109.809 80.6622 115.258 81.0602C117.716 80.7949 118.447 78.5392 121.504 79.3353C123.431 79.7997 125.624 80.7285 127.418 79.4017C128.946 78.4066 130.009 76.8807 131.338 75.6865C131.405 75.4875 131.87 77.8095 131.737 78.5392L131.604 79.0036C130.807 82.5861 129.943 86.832 126.355 88.7559C125.225 89.353 123.697 89.8837 122.434 89.552C115.922 90.6135 108.879 89.8174 103.23 86.5666C101.237 86.0359 99.7085 84.4437 98.1802 83.2495C94.2597 79.9324 89.8076 75.6865 89.4089 70.5782C89.0102 65.4698 89.2096 61.5557 89.5418 61.5557ZM109.144 71.6397C111.337 68.1235 115.723 68.6543 119.178 70.3128C121.039 69.0523 123.564 69.2513 125.624 70.1801C127.484 71.2416 128.946 72.9002 130.275 74.4924C130.607 74.8904 130.74 75.4875 130.275 75.6865C128.149 77.4114 123.763 76.4163 121.77 75.0894C120.308 74.9568 120.64 72.9002 118.979 74.3597C117.849 75.4212 116.454 76.0182 114.992 76.4163C111.603 77.5441 108.48 77.4114 105.556 75.5538C105.157 75.4875 103.629 74.6251 104.161 74.3597C104.692 74.5587 108.015 72.7011 109.144 71.6397Z" fill="white"/>
<path fill-rule="evenodd" clip-rule="evenodd" d="M89.0103 65.3372C89.0103 65.1382 89.3425 65.1382 89.3425 65.3372C89.4754 69.4504 90.8044 73.9617 93.0637 77.4778C98.5125 86.3676 109.61 90.8126 120.308 89.2867C128.082 89.154 128.946 84.7754 130.873 78.6056C131.87 77.8095 132.402 78.0749 132.069 79.07C129.677 86.5003 128.813 90.8126 119.311 90.6799C104.028 92.8028 87.4155 80.3305 89.0103 65.3372ZM110.606 68.6543C113.131 67.5265 116.055 67.7255 118.181 69.2514L118.314 69.3177C118.647 69.3841 119.045 69.4504 119.444 69.4504C124.959 66.5314 128.614 71.5734 131.471 75.4212C131.671 75.4212 131.87 75.6202 131.804 75.8192L131.87 75.8856C131.538 76.8144 130.873 77.7432 130.009 78.3402C127.152 82.1881 124.959 80.9939 121.238 79.4017C117.384 78.8046 117.251 83.3822 111.802 81.2593L111.603 81.193C109.809 80.5959 107.815 79.7334 106.486 78.4066C106.42 78.3402 106.486 78.2739 106.553 78.2739C109.543 79.2027 113.397 82.1217 116.454 80.1315C117.251 79.6007 117.916 79.0037 118.779 78.6056C123.697 76.9471 125.424 83.4486 129.744 76.748C126.222 77.3451 122.301 76.748 119.71 74.3597C115.789 79.07 108.214 78.3402 103.363 75.3549C102.699 75.4212 101.702 74.8241 102.3 74.1607C102.965 73.63 104.028 73.829 104.825 73.5636C107.35 72.6348 107.948 69.6494 110.606 68.6543ZM119.311 70.6446C116.52 68.6543 112.4 68.3226 109.742 70.6446C108.148 72.3031 107.084 74.6914 104.426 75.0895C109.011 77.7432 115.59 77.7432 119.112 73.5636C119.245 73.2319 119.776 73.3646 119.843 73.6963C122.368 75.4212 125.557 76.4163 128.747 75.8192C129.278 75.7529 129.744 75.6202 130.209 75.4875L129.744 74.8241C127.285 71.4407 124.095 67.5265 119.378 70.3129C119.245 70.3792 119.245 70.2465 119.245 70.1802L119.178 70.2465C119.245 70.3129 119.577 70.6446 119.311 70.6446ZM130.674 76.4827L130.74 76.549C130.807 76.4827 130.873 76.4827 131.006 76.4163C130.807 76.4163 130.74 76.4163 130.674 76.4827ZM89.3425 60.2289V60.0962C89.3425 58.7693 89.6748 60.4279 89.8741 60.7596C90.6051 62.0201 91.1366 63.2806 91.934 64.5411C94.9242 69.9148 95.3894 72.2368 101.436 75.2885C101.901 75.6866 101.436 76.35 100.838 76.2173C99.9744 76.0183 99.2434 75.4875 98.5125 75.0231C94.3927 72.9665 92.8643 68.6543 91.0038 64.8728C90.4722 63.4133 89.2096 61.8211 89.3425 60.2289Z" fill="black"/>
<path fill-rule="evenodd" clip-rule="evenodd" d="M135.089 59.1005C133.76 68.1231 124.39 69.1182 122.729 60.162C122.995 60.0293 123.194 59.8303 123.128 59.3659C123.128 57.442 123.726 55.319 125.52 54.2576C127.314 53.1297 129.507 52.9971 131.567 53.0634C135.62 52.9307 135.554 56.3142 135.089 59.1005ZM121.267 55.12C120.005 55.0537 118.41 55.12 117.28 55.8498C116.948 54.9873 116.151 54.1249 115.353 53.6605C118.41 53.7268 121.533 53.4615 124.59 53.1961C123.859 53.7268 123.194 54.4566 122.729 55.319C122.33 55.1863 121.732 55.1863 121.267 55.12ZM115.685 60.0293C112.23 72.1036 103.459 66.8626 102.462 65.2703C100.734 62.7493 100.469 56.5132 101.93 54.8546C104.057 53.3288 107.113 53.7268 109.639 53.7268C114.356 53.7932 117.612 55.1863 115.685 60.0293ZM139.208 54.5229C138.278 54.3902 137.215 54.3902 136.351 54.7883C136.085 53.5941 135.221 52.6654 134.291 52.201C134.158 52.0683 134.225 52.0019 133.76 52.0019C131.301 51.2722 128.577 51.6702 126.184 52.4C122.463 52.7317 118.543 52.9307 114.755 53.3951C111.3 51.8029 100.668 51.6039 100.003 55.5181C99.206 55.3854 97.7442 54.722 97.0797 55.5844C91.9631 54.722 86.6472 55.9161 81.5306 56.4468C80.2681 56.7122 79.5371 59.2332 81.0654 59.2332C81.8628 59.0342 81.0654 57.641 82.1286 57.5083C87.1123 56.9776 91.9631 56.1815 96.9468 56.1151C96.7474 56.9776 100.269 57.0439 100.336 56.5132C99.4718 59.6976 100.269 64.3416 101.798 66.3318C103.99 68.9192 109.439 69.7153 111.898 67.9904C115.021 66.4645 118.277 58.7025 117.347 56.1151C119.008 55.5844 120.669 55.7171 122.397 55.9825C121.998 57.1103 121.334 59.8303 122.33 60.0957C122.131 65.5357 127.115 68.9192 131.7 66.7299C135.687 64.8723 137.016 58.9678 136.55 55.4517C137.016 56.4468 141.135 55.3854 139.208 54.5229Z" fill="black"/>
</g>
<defs>
<clipPath id="clip0_7984_5730">
<rect width="201.335" height="189.524" fill="white" transform="translate(-0.000732422 0.187988)"/>
</clipPath>
<clipPath id="clip1_7984_5730">
<rect width="14.6381" height="16.9493" fill="white" transform="translate(114.867 116.76)"/>
</clipPath>
</defs>
</svg>
