<svg width="202" height="190" viewBox="0 0 202 190" fill="none" xmlns="http://www.w3.org/2000/svg">
<g clip-path="url(#clip0_7984_5109)">
<path fill-rule="evenodd" clip-rule="evenodd" d="M97.7416 193.803C97.2021 190.756 96.7076 187.7 96.2583 184.638C96.0449 183.184 95.8368 181.729 95.6498 180.271C95.5187 179.25 95.3192 178.082 96.0138 177.326C96.9911 176.261 97.8789 175.35 97.9985 173.825C98.1111 172.39 97.6261 170.826 97.3228 169.433C96.6869 166.513 95.8952 163.628 95.0204 160.771C94.1317 157.868 93.1571 154.993 92.1686 152.123C91.2444 149.439 90.3559 146.732 89.1522 144.157C86.8677 139.271 83.0028 135.653 78.2264 133.237C77.0384 132.636 74.6155 130.491 73.3744 130.011C72.2334 129.569 72.2375 130.859 71.1146 130.373C70.2169 129.985 69.381 129.467 68.8784 128.6C68.3326 127.659 66.9641 126.342 66.7557 125.246C66.3142 122.923 66.7925 120.946 65.1352 119.197C63.6639 117.645 61.6864 116.581 59.6403 116.01C55.1389 114.754 49.1359 115.632 46.42 119.817C45.1229 121.815 44.6696 124.23 42.9193 125.861C41.3909 127.285 41.733 128.259 39.7534 128.992C39.6413 129.034 36.6025 128.382 36.4904 128.424C34.3248 127.96 32.255 129.258 30.2683 130.011C27.3064 131.134 24.4864 132.595 21.8371 134.331C16.495 137.833 11.9195 142.38 8.14744 147.525C4.34417 152.712 1.39321 158.527 -0.707959 164.604C-1.21823 166.08 -1.67658 167.574 -2.08086 169.083C-2.30716 169.927 -2.54898 170.803 -2.27343 171.668C-2.04807 172.375 -1.54677 172.901 -0.958076 173.326C-0.160084 173.901 1.44059 174.275 1.4094 175.432C1.38558 176.311 1.08729 177.237 0.941689 178.106C0.768387 179.141 0.625998 180.183 0.48361 181.222C-0.164099 185.955 -0.668213 190.714 -0.891164 195.487C-1.11064 200.186 -1.29277 204.982 -0.966909 209.679C-0.945363 209.989 -0.853024 210.274 -0.704078 210.514C-0.843122 210.567 -0.853828 210.826 -0.680793 210.863C-0.559549 210.889 -0.438572 210.915 -0.317327 210.94C-0.0654702 211.131 0.248615 211.248 0.610073 211.259C0.855105 211.267 1.1 211.278 1.34477 211.291C3.9277 211.831 6.51024 212.341 9.1269 212.727C12.3076 213.197 15.4977 213.58 18.6977 213.891C25.2732 214.53 31.7968 214.318 38.381 213.974C44.9549 213.629 51.525 213.549 58.1058 213.72C64.6924 213.892 71.2765 214.178 77.8645 214.296C85.2247 214.426 92.5737 214.225 99.9126 213.64C100.919 213.56 101.541 212.759 101.343 211.759C100.154 205.769 98.8064 199.819 97.7416 193.803Z" fill="white"/>
<path fill-rule="evenodd" clip-rule="evenodd" d="M34.4359 128.276C35.1165 128.247 35.8105 128.357 36.4895 128.424C36.5487 128.429 36.5712 128.521 36.5045 128.535C35.2893 128.789 34.0874 129.136 32.8939 129.489L32.3829 129.64C31.037 130.038 29.7306 130.449 28.4277 130.981C25.831 132.039 23.3647 133.468 21.095 135.11C12.3546 141.432 6.02878 151.003 2.03681 160.913C0.952704 163.604 0.0341358 166.362 -0.709926 169.167C-0.890856 169.849 -1.06108 170.534 -1.22247 171.221C-1.26985 171.423 -1.47634 171.939 -1.36312 172.145C-1.26302 172.327 -0.873861 172.44 -0.693064 172.534L-0.0826774 172.851C1.10794 173.465 3.09119 174.474 3.29007 174.572L3.60025 174.725C8.67361 177.213 14.0944 179.323 19.8036 179.469L19.8483 178.981C20.1028 176.285 20.4368 173.574 21.1659 170.961C21.2051 170.82 21.3838 170.868 21.4001 170.992C21.8062 174.086 21.6764 177.205 21.5347 180.313C21.2838 185.818 20.9506 191.32 20.6544 196.824C20.5061 199.576 20.3145 202.327 20.1415 205.079C19.9682 207.836 19.9121 210.659 19.5164 213.393C19.4282 214.003 18.7146 214.334 18.1742 214.27C17.5763 214.199 17.1164 213.672 17.1136 213.068C17.1063 211.475 17.3064 209.863 17.4176 208.274C17.5232 206.765 17.6365 205.256 17.7527 203.747C18.1772 198.241 18.6655 192.741 19.1172 187.237C19.2772 185.285 19.4501 183.334 19.6281 181.384C13.5802 181.189 7.93002 178.948 2.53986 176.329C2.46184 178.102 2.27341 179.87 2.09101 181.635C1.58181 186.56 1.13283 191.483 0.796799 196.423C0.62711 198.918 0.50359 201.416 0.395996 203.915C0.343135 205.142 0.300044 206.371 0.266989 207.599C0.255927 208.009 0.245934 208.418 0.237092 208.828L0.218705 209.766C0.203661 210.361 0.143252 210.911 -0.356764 211.344C-0.864626 211.784 -1.55061 211.807 -2.05325 211.344C-2.72612 210.724 -2.60715 209.88 -2.58721 209.047C-2.57062 208.345 -2.55068 207.643 -2.52752 206.941C-2.48109 205.537 -2.4218 204.134 -2.34967 202.731C-2.09726 197.826 -1.59294 192.941 -0.933858 188.075L-0.676575 186.197C-0.19611 182.706 0.331375 179.135 1.40543 175.771C0.987231 175.563 0.570234 175.354 0.154845 175.143C-0.58199 174.77 -1.34385 174.42 -2.06008 174.008C-2.62829 173.681 -3.11836 173.233 -3.27654 172.572C-3.45295 171.835 -3.18319 171.028 -3.00398 170.31L-2.98841 170.246C-2.8127 169.522 -2.62348 168.802 -2.42381 168.084C-1.61418 165.174 -0.613037 162.32 0.558592 159.536C2.90453 153.962 5.93256 148.668 9.63133 143.88C12.9607 139.57 16.8938 135.662 21.5035 132.731C23.7571 131.298 26.1587 130.122 28.6986 129.29C29.8857 128.901 31.1774 128.563 32.4204 128.424C33.0908 128.349 33.7622 128.306 34.4359 128.276ZM46.4952 119.444C47.3041 118.576 48.911 119.475 48.5227 120.625C47.6092 123.332 46.1545 125.801 43.8843 127.58C41.7504 129.252 39.2057 130.338 36.4653 130.106C36.4441 130.104 36.4258 130.099 36.4096 130.091L36.6458 130.412C38.4999 132.921 40.4559 135.395 42.8133 137.446C47.6167 141.624 54.1567 143.878 60.4718 142.275C65.4404 141.013 69.8178 137.083 71.1052 132.074C70.9207 132.157 70.7013 132.185 70.4606 132.132C69.4305 131.909 68.4108 130.825 67.7465 130.048C67.0279 129.207 66.4666 128.3 66.0552 127.274C65.3023 125.396 65.0609 122.978 66.089 121.159C66.2158 120.935 66.5084 121.061 66.5333 121.28L66.5724 121.621C66.7706 123.326 67.0175 124.975 67.8209 126.529C68.2141 127.289 68.6854 128.032 69.2591 128.669C69.5661 129.009 69.8989 129.335 70.2582 129.621C70.6084 129.899 71.0322 130.1 71.346 130.42L71.4035 130.481L71.4051 130.47C71.4845 129.795 71.9575 129.498 72.4204 129.516C72.8684 129.534 73.3946 129.732 73.5983 129.826L73.6176 129.835C76.7427 131.336 79.6209 133.292 82.3294 135.462C87.9308 139.95 92.1276 145.817 94.1611 152.726C95.1591 156.117 95.7318 159.611 96.3363 163.089L96.7085 165.22C97.2728 168.431 97.9031 171.704 99.1768 174.691C99.5063 175.463 99.2523 176.188 98.4444 176.492C97.4356 176.871 96.4231 177.239 95.409 177.601C95.907 179.738 96.2106 181.949 96.5837 184.097C97.3767 188.662 98.3484 193.198 99.1816 197.757C99.6076 200.088 99.9919 202.427 100.417 204.758C100.622 205.881 100.836 207.002 101.044 208.124C101.156 208.729 101.258 209.336 101.365 209.942L101.383 210.043C101.445 210.362 101.522 210.693 101.434 211.013C101.333 211.378 101.049 211.636 100.795 211.897C100.585 212.113 100.283 212.114 100.027 211.996L99.9426 211.957C99.4849 211.743 99.1263 211.53 98.9639 211.013C98.8611 210.686 98.8241 210.317 98.7569 209.981C98.628 209.335 98.5058 208.688 98.3905 208.039C98.1597 206.742 97.9344 205.443 97.7144 204.143L97.5089 202.926C96.8036 198.732 96.1338 194.512 95.7952 190.274C95.645 188.393 95.4858 186.515 95.3252 184.636L95.2045 183.226C95.052 181.442 94.8655 179.613 94.8392 177.805L94.2328 178.021L91.2738 179.067C90.5402 179.326 89.6061 179.858 88.8166 179.761C88.4301 179.714 88.1354 179.592 87.9079 179.371C88.1804 183.218 88.5492 187.058 89.0407 190.878C89.4879 194.354 89.9838 197.826 90.5694 201.282C90.8594 202.993 91.1574 204.702 91.4811 206.407C91.6429 207.26 91.8099 208.111 91.982 208.962C92.0678 209.387 92.1699 209.811 92.2368 210.239C92.3134 210.729 92.1785 211.031 91.9048 211.434C91.6801 211.765 91.2306 211.935 90.8662 211.706C90.3836 211.403 90.1319 211.141 89.9899 210.589C89.8609 210.088 89.7825 209.565 89.6827 209.057C89.4984 208.121 89.3203 207.183 89.1483 206.243C88.7887 204.279 88.4572 202.31 88.1612 200.335C87.1181 193.378 86.4562 186.362 86.1219 179.335C85.9569 175.868 85.9059 172.398 85.9352 168.927C85.9502 167.148 86.0083 165.364 86.134 163.59C86.2615 161.794 86.5264 160.033 86.763 158.254C86.7713 158.192 86.8596 158.188 86.8634 158.254C86.9754 160.249 87.151 162.241 87.237 164.241C87.3192 166.149 87.3552 168.06 87.4205 169.969C87.5063 172.478 87.6253 174.988 87.7828 177.497C88.0679 177.185 88.4978 177.005 88.9279 177.076C89.551 176.945 90.2217 176.618 90.8158 176.419L93.0552 175.671C94.2324 175.277 95.4097 174.887 96.5911 174.508C95.5348 170.953 94.8113 167.345 94.1934 163.685L93.9179 162.039C93.3724 158.798 92.7844 155.556 91.7964 152.418C90.7578 149.12 89.2036 146.052 87.1417 143.275C85.1094 140.538 82.6367 138.127 80.0908 135.873C77.9112 133.943 75.5796 132.2 73.3565 130.323C73.3798 130.448 73.3848 130.585 73.3643 130.735C72.8916 134.196 71.087 137.419 68.5721 139.816C63.5195 144.631 56.0405 145.63 49.5739 143.372C43.3185 141.188 37.788 136.015 35.834 129.613C35.8006 129.504 35.9472 129.46 36.0061 129.54C36.1145 129.689 36.2234 129.838 36.3325 129.986C36.3252 129.927 36.3558 129.863 36.4286 129.835C38.7084 128.954 40.9472 127.705 42.6561 125.939C43.489 125.077 44.216 124.102 44.7898 123.049C45.0647 122.545 45.3116 122.023 45.5086 121.484L45.5586 121.344C45.7974 120.669 45.9969 119.98 46.4952 119.444Z" fill="black"/>
<path fill-rule="evenodd" clip-rule="evenodd" d="M58.5696 63.5361C66.1682 63.5361 75.6852 72.2074 78.4706 75.8974C80.8124 78.9997 80.4811 94.982 80.4811 104.463C80.4811 106.446 79.5851 110.198 79.2599 112.095C78.068 119.045 72.8753 124.874 62.5978 124.874C54.2295 124.874 47.7895 122.222 41.562 115.44C40.1412 113.893 33.2027 119.432 31.7836 117.437C28.0772 117.437 24.9779 82.7932 32.2551 72.4019C39.5323 62.0107 50.971 63.5361 58.5696 63.5361Z" fill="white"/>
<path fill-rule="evenodd" clip-rule="evenodd" d="M35.7314 65.976C40.1222 61.9798 45.9716 60.0573 51.8733 60.1992C54.9298 60.2728 57.9756 60.8552 60.8622 61.8526C62.3062 62.3533 63.7046 63.0066 65.0415 63.7456C65.5233 64.0113 65.9674 64.3226 66.395 64.6532L66.5015 64.7363H66.5029C67.6498 65.1486 68.6735 65.889 69.6023 66.7551C71.4637 66.6065 73.34 66.7739 75.1399 67.3482C77.6451 68.1488 79.9642 69.6147 81.5929 71.6965C83.49 74.1201 84.1206 77.0599 83.8956 80.0947L83.8541 80.6102C83.6315 83.291 83.2329 86.7392 81.0335 88.5007C80.8662 88.6346 80.6815 88.7363 80.4902 88.7979C81.9074 91.2264 83.0703 93.9227 83.7662 96.6457C86.4226 107.047 84.3804 117.893 81.1861 127.918C80.9238 128.744 79.6752 129.293 79.0395 128.486C77.9047 127.042 76.256 125.942 74.4012 125.736C73.257 125.609 72.1181 125.839 71.0368 125.319C70.6126 125.115 70.2031 124.78 69.9087 124.373C68.0834 125.065 66.1175 125.392 64.1677 125.311C60.9679 125.18 57.5474 124.072 55.346 121.64C54.9927 121.25 54.9032 120.812 54.9845 120.417C55.2606 120.319 55.544 120.245 55.8361 120.199C58.6276 121.845 61.7048 122.945 65.0118 123.014C66.9227 123.054 68.7866 122.787 70.336 121.593C70.6712 121.335 70.9796 121.048 71.2646 120.741C74.5041 118.656 76.7881 115.115 77.8739 111.323C78.8856 107.786 78.7612 104.103 78.4132 100.475L78.2297 98.5601C77.9621 95.7501 77.7138 92.9318 77.6443 90.1099L77.6653 90.1088C78.3494 90.0646 78.3543 88.9932 77.6653 89.0378C75.8829 89.1532 74.114 88.8607 72.3371 88.9881C72.3222 88.1478 72.2617 87.3112 72.0148 86.5007C71.8739 86.0376 71.0679 85.9463 70.9825 86.5007C70.8682 87.2424 70.8265 87.9799 70.814 88.7249C68.1548 88.6896 65.4981 88.4657 62.8385 88.5577C62.3479 88.0343 62.1918 87.1061 61.9622 86.4604C61.9288 86.3654 61.8953 86.2716 61.8605 86.1766C61.6589 87.0993 61.373 88.0017 60.997 88.8852L60.3447 88.8874C56.6438 88.9048 52.8676 89.0154 49.2538 89.7843C49.0026 89.5914 48.8531 89.2548 48.8127 88.9492C48.5506 86.9603 48.1764 85.0244 47.5134 83.1291L47.4185 82.8617C47.4108 82.8395 47.4026 82.8159 47.394 82.7911C46.9054 83.5801 46.3225 84.3154 45.6867 85.0002C45.312 85.4039 44.9191 85.7898 44.5159 86.1648C44.1242 86.5999 43.7194 87.0284 43.327 87.4649C43.3424 87.5443 43.3558 87.6249 43.3666 87.7069C43.4866 88.6126 43.4991 89.5311 43.4112 90.4403C43.2522 92.0839 42.7883 93.6676 42.0432 95.1328L42.0196 95.2795C41.9065 95.9661 41.7455 96.6757 41.3695 97.1927C41.8387 97.7186 42.2002 98.3468 42.4098 99.0447C42.5963 99.666 41.737 100.204 41.2914 99.696C40.9374 99.2921 40.5441 98.9578 40.1121 98.6911C40.0848 98.7282 40.0356 98.7464 39.9803 98.7155C38.7772 98.0474 36.7337 98.2496 35.532 98.8788C34.0372 99.6606 33.4537 101.266 33.6197 102.892C33.7789 104.447 34.4587 106.263 35.7769 107.06C36.3818 107.425 36.8528 107.456 37.4952 107.281C37.7006 107.225 37.9552 107.054 38.0645 106.969L38.1721 106.883C38.5932 106.55 38.9854 106.322 39.4825 106.313C39.9909 106.154 40.5019 106.374 40.6963 106.908L40.7083 106.942C40.7993 107.214 40.9653 107.555 40.9291 107.97C40.8917 108.415 40.6882 108.819 40.3845 109.144C40.3323 109.201 40.2761 109.257 40.2185 109.309C45.451 114.976 46.1228 123.807 43.4397 130.886C43.3232 131.197 43.1988 131.503 43.069 131.807C42.6207 132.849 40.8943 132.526 40.6749 131.494C40.6093 131.185 40.537 130.877 40.4581 130.571C40.3129 130.007 40.1467 129.449 39.9592 128.898L39.888 128.692C39.7287 128.237 39.5802 127.777 39.4196 127.322L39.4035 127.27C39.3975 127.25 39.3908 127.226 39.3835 127.199L39.1118 127.792L38.2861 129.582C37.8997 130.417 36.6721 129.963 36.6264 129.158L36.6253 129.131C36.6213 128.982 36.616 128.835 36.6066 128.689C36.5477 127.595 36.359 126.532 36.0593 125.492L35.9511 125.627C34.3407 127.618 32.4507 129.485 29.8579 129.945C29.2075 130.06 28.4714 129.38 28.9184 128.723C29.1031 128.451 29.2811 128.172 29.4497 127.89C29.3038 127.822 29.166 127.751 29.0389 127.678C28.0553 127.125 27.2363 126.338 26.5591 125.445C25.1232 123.552 24.6093 121.169 24.4835 118.837C24.3497 116.372 24.5665 113.774 25.2396 111.396C25.5313 110.368 25.9261 109.381 26.3825 108.424C26.3503 108.338 26.3196 108.253 26.2888 108.167C25.7963 106.794 25.3922 105.389 25.0563 103.969C24.3791 101.101 24.0151 98.1425 23.9709 95.1958C23.8907 89.9171 24.8007 84.554 26.7184 79.6314C28.6989 74.5548 31.6779 69.6643 35.7314 65.976ZM33.265 112.129C32.9013 111.556 31.9914 112.072 32.329 112.649L32.3416 112.669C32.9184 113.578 33.1887 114.612 33.5206 115.625C33.7334 116.277 34.7679 115.999 34.5524 115.34L34.4811 115.12C34.1508 114.093 33.8496 113.048 33.265 112.129ZM36.4326 101.193L36.6743 101.077C37.4364 100.713 38.1042 100.465 39.0047 100.782C40.2105 101.207 41.5019 102.558 40.6869 103.868C40.3871 104.352 39.8545 104.544 39.3058 104.431C38.3808 104.239 38.1421 103.405 37.6727 102.721L37.592 102.606C37.3058 102.192 36.9439 101.619 36.4674 101.457C36.359 101.42 36.3135 101.251 36.4326 101.193ZM37.1123 73.3661L37.1901 73.2963C37.708 72.8385 36.9479 72.0834 36.4326 72.5386C34.0747 74.6231 33.2557 77.8856 32.0325 80.6662C31.7582 81.2914 32.6802 81.8377 32.9572 81.2071C34.124 78.5537 34.8985 75.3797 37.1123 73.3661ZM65.4484 72.4543C64.8322 72.1765 64.2932 73.0735 64.8855 73.3688L64.9077 73.3793C66.99 74.3205 67.8759 76.4518 68.7244 78.4305C68.9947 79.0624 69.9167 78.5175 69.6491 77.891L69.496 77.5359C68.6107 75.4968 67.5781 73.4183 65.4484 72.4543ZM68.7123 71.1664C68.0593 70.9401 67.7796 71.9736 68.4273 72.1999C70.1924 72.8144 71.4035 74.1398 72.4246 75.6552C72.8073 76.2229 73.7347 75.6874 73.348 75.1144C72.1623 73.3552 70.7545 71.8786 68.7123 71.1664Z" fill="black"/>
<path fill-rule="evenodd" clip-rule="evenodd" d="M65.1284 115.473C64.2288 115.106 63.4261 114.493 62.8393 113.711C62.6352 113.439 62.5823 113.152 62.6251 112.889C62.6733 112.594 62.8479 112.326 63.0861 112.147C63.3251 111.967 63.624 111.878 63.9129 111.923C64.164 111.962 64.414 112.1 64.6118 112.385L64.6531 112.442C65.002 112.914 65.4566 113.302 65.9747 113.551C66.4739 113.792 67.0323 113.904 67.6102 113.839C68.7107 113.715 69.4693 113.119 70.2755 112.311C70.3755 112.209 70.4755 112.103 70.576 111.996C70.6394 111.899 70.7275 111.837 70.8253 111.804C70.9338 111.768 71.0566 111.77 71.1691 111.809C71.2776 111.847 71.3746 111.919 71.4396 112.015C71.5014 112.105 71.5365 112.218 71.5251 112.347C71.4513 113.185 71.0134 113.932 70.3914 114.52C69.7005 115.172 68.7847 115.623 67.9225 115.781C66.9727 115.956 66.0048 115.831 65.1284 115.473ZM68.3706 102.546C69.3812 103.16 70.921 104.593 69.8338 106.117C68.5542 107.46 66.7118 105.92 65.8039 105.223C64.962 104.683 64.0161 106.072 64.7972 106.702C71.3578 111.561 74.0202 102.707 68.8817 101.823C68.316 101.726 68.1059 102.356 68.3706 102.546ZM56.6141 96.8936C56.7257 95.5071 58.8365 95.1923 59.0464 96.5642C59.2345 97.7932 59.0131 98.9222 58.4598 100.029C57.931 101.086 56.6021 100.593 56.5016 99.63C56.3669 98.3397 56.5446 97.756 56.6141 96.8936ZM72.6815 96.2797C72.9757 95.8942 73.4006 95.631 73.9097 95.7797C75.5002 96.2447 75.0314 98.5036 74.4728 99.6031C74.1693 100.2 73.1882 100.352 72.7449 99.8259C72.0222 98.9685 71.6762 97.2564 72.5949 96.4119C72.6198 96.3682 72.6475 96.3242 72.6815 96.2797ZM58.4373 90.8268L58.6886 90.7828C59.4658 90.6484 60.4322 90.5192 60.982 91.1443C61.2736 91.4757 61.374 92.0918 60.982 92.4091C60.2926 92.9674 59.5303 92.751 58.7041 92.7983C58.0232 92.8374 57.3688 92.9501 56.7129 93.1377C55.274 93.5491 54.1016 94.3001 52.8727 95.1248C52.7114 95.233 52.5468 95.0267 52.6238 94.8758C53.3332 93.4857 54.7079 92.3439 56.085 91.6479C56.82 91.2764 57.6242 90.9682 58.4373 90.8268ZM71.2316 90.2042L71.4239 90.2435C73.5165 90.6811 76.2354 91.5552 77.2263 93.6115C77.2641 93.9023 77.2242 93.9646 77.1917 94.0053L77.1809 94.0188C77.1542 94.0536 77.1329 94.1015 77.0069 94.1411C76.9719 94.1328 76.9366 94.124 76.9009 94.1146C76.4467 93.9955 76.0873 93.8315 75.7394 93.6612L75.3621 93.4753C74.9245 93.2606 74.4829 93.0537 74.015 92.901C73.0164 92.5752 71.9892 92.3456 70.9461 92.2231C70.7201 92.1965 70.5024 92.1202 70.3306 91.9894C70.1676 91.8652 70.043 91.6933 69.9863 91.4648C69.9127 91.169 69.9338 90.9451 70.0924 90.6783C70.2117 90.4779 70.3824 90.3391 70.5783 90.2593C70.7781 90.178 71.0055 90.1589 71.2316 90.2042Z" fill="black"/>
<path fill-rule="evenodd" clip-rule="evenodd" d="M157.122 120.19C153.819 117.674 145.526 116.542 142 118.965C138.517 121.398 138.138 125.333 136.515 128.953C134.984 128.231 132.456 129.265 132.012 130.686C131.461 131.357 131.436 133.24 131.057 134.141C114.537 136.772 112.029 149.656 110.041 164.283C107.41 179.126 101.439 193.936 104.031 209.209C103.694 209.698 103.427 210.174 103.181 210.738C102.591 211.742 103.351 213.164 104.541 213.109C106.082 212.974 107.607 212.789 109.154 212.731C113.445 212.582 117.739 212.6 122.031 212.654L122.616 212.662C144.247 212.931 165.876 213.462 187.507 213.603C188.292 213.604 188.676 212.9 188.571 212.206C188.36 210.807 188.165 209.408 187.96 208.009C193.077 209.361 198.516 209.701 203.618 208.151C203.974 207.788 202.786 207.985 202.597 207.93C207.293 204.72 205.891 197.958 205.475 193.088C202.888 176.4 201.977 157.936 191.984 143.696C187.661 137.885 181.323 133.284 174.041 132.249L173.839 132.221C171.709 131.937 169.336 131.845 167.474 130.686C165.38 129.014 164.488 125.924 162.285 125.895C161.558 125.886 160.568 126.806 159.503 127.431C159.424 126.056 158.683 124.896 158.52 123.83L158.506 123.739C158.336 122.496 158.569 121.378 157.122 120.19ZM121.62 164.724C126.263 161.497 138.255 163.119 138.53 163.299C139.134 163.697 139.395 163.732 139.722 164.249C140.044 164.291 140.367 164.336 140.689 164.382C141.336 164.593 140.857 165.388 140.11 165.105C140.559 167.042 139.237 168.42 138.711 170.336C138.54 170.958 138.705 172.077 138.711 172.712C138.66 173.523 137.764 174.48 137.914 175.293C138.444 178.183 141.324 181.003 140.11 183.806C139.306 185.389 136.886 186.196 135.278 186.734C131.946 188.013 126.14 186.686 124.204 183.806C123.172 182.269 121.975 178.394 121.359 177.192L121.223 175.285C120.886 170.545 120.587 165.442 121.62 164.724Z" fill="white"/>
<path fill-rule="evenodd" clip-rule="evenodd" d="M163.094 125.615C162.774 125.331 162.3 125.688 162.503 126.072C162.961 126.934 163.431 127.75 164.045 128.512C164.417 128.974 164.816 129.411 165.22 129.844C164.183 130.741 163.293 131.856 162.453 132.901C161.378 134.237 160.362 135.63 159.156 136.853C157.967 138.059 156.652 138.902 155.061 139.464L154.74 139.575C153.142 140.136 151.435 140.894 150.534 142.407C150.357 142.706 150.714 143.074 151.015 142.888C152.58 141.919 154.418 141.724 156.122 141.084C157.767 140.465 159.201 139.513 160.469 138.298C161.734 137.084 162.796 135.704 163.904 134.353C165 133.017 166.18 131.876 167.476 130.746C169.476 132.092 171.759 132.677 174.08 133.253L174.334 133.316C176.658 133.891 178.97 134.56 181.15 135.562C183.073 136.446 184.964 137.501 186.53 138.939C188.192 140.466 189.486 142.415 190.67 144.321C193.319 148.586 195.181 153.258 196.821 157.987C198.526 162.906 199.952 167.923 201.104 173C201.689 175.583 202.165 178.184 202.556 180.803C202.744 182.064 202.911 183.328 203.058 184.595C203.215 185.948 203.251 187.34 203.666 188.64C203.843 189.198 204.263 189.429 204.684 189.41L204.769 190.478C204.882 191.902 204.988 193.327 205.023 194.76C205.083 197.142 205.056 199.518 204.884 201.896L204.86 202.22C204.726 203.955 204.425 205.905 203.12 207.176C201.77 208.492 199.692 208.906 197.871 208.929C193.631 208.985 189.549 206.98 185.797 205.222C181.932 203.411 178.173 201.401 174.504 199.221C172.636 198.11 170.788 196.963 168.963 195.783C168.067 195.203 167.178 194.614 166.296 194.015C165.79 193.672 165.311 193.296 164.797 192.991C165.049 192.757 165.162 192.387 164.95 192.065C166.438 190.773 167.057 188.468 167.129 186.603C167.188 185.098 166.966 183.597 166.792 182.106C166.703 181.354 166.594 180.603 166.481 179.854C166.437 179.559 166.402 179.242 166.35 178.93C170.367 181.138 174.496 183.104 178.734 184.851C180.907 185.747 183.107 186.552 185.338 187.29L185.79 187.439C187.903 188.131 190.068 188.785 192.253 189.18C192.369 189.201 192.464 189.029 192.34 188.974C190.21 188.034 188.007 187.241 185.846 186.375L185.49 186.231C185.531 186.228 185.574 186.223 185.618 186.212C186.885 185.906 188.143 185.435 189.386 185.037C190.54 184.669 191.836 184.437 192.915 183.881C192.998 183.838 192.951 183.723 192.871 183.717C191.658 183.633 190.343 183.987 189.154 184.195L188.708 184.273C187.96 184.405 187.195 184.547 186.451 184.732C186.424 184.482 186.285 184.232 186.086 184.085C183.905 182.469 184.127 179.206 183.894 176.799L183.721 175.013C183.416 171.886 183.095 168.76 182.606 165.656C182.58 165.491 182.323 165.538 182.322 165.695C182.297 169.541 182.587 173.371 182.733 177.212L182.755 177.842C182.836 180.212 182.899 182.673 184.391 184.496C184.182 184.374 183.9 184.374 183.731 184.575C183.523 184.823 183.403 185.1 183.407 185.373C182.059 184.807 180.717 184.227 179.381 183.635C175.086 181.732 170.881 179.601 166.788 177.297C166.347 177.049 165.928 177.243 165.71 177.57L165.679 177.566C165.674 177.565 165.668 177.565 165.663 177.565L165.632 177.563C165.631 177.563 165.629 177.563 165.628 177.563C165.052 177.247 164.267 177.472 163.773 177.934C163.758 177.948 163.746 177.963 163.733 177.978C163.107 177.697 162.522 177.317 161.992 176.836C160.906 175.852 159.986 174.635 159.185 173.414C157.709 171.167 156.455 168.667 154.461 166.817C152.84 165.313 150.832 164.378 148.724 163.79C148.733 163.728 148.71 163.663 148.667 163.619C148.559 163.508 148.482 163.47 148.342 163.537C148.331 163.543 148.324 163.55 148.319 163.558L148.114 163.207C148.002 163.016 147.886 162.824 147.846 162.773C147.607 162.472 147.361 162.173 147.111 161.88C146.687 161.384 146.204 160.895 145.645 160.551C144.42 159.799 143.133 160.225 141.874 160.636C141.113 160.885 140.355 161.141 139.596 161.394L139.518 161.419C138.952 161.601 138.289 161.76 138.036 162.36C137.936 162.598 137.92 162.844 137.967 163.083C132.589 161.715 126.616 162.344 121.369 163.95C121.167 164.011 120.966 164.177 120.924 164.395C120.322 167.48 120.055 170.643 120.327 173.78C120.561 176.488 121.161 179.142 122.292 181.621L122.356 181.761C123.418 184.059 125.102 186.891 127.673 187.611C129.225 188.046 130.942 187.79 132.526 187.71C134.065 187.633 135.638 187.622 137.162 187.379C138.519 187.164 139.709 186.555 140.548 185.451C141.271 184.498 141.653 183.347 141.965 182.202C142.108 182.247 142.25 182.296 142.389 182.35C142.979 182.581 143.479 182.953 143.931 183.39C144.885 184.315 145.625 185.437 146.623 186.319C147.526 187.117 148.556 187.738 149.661 188.216C151.949 189.205 154.404 189.6 156.825 190.125L156.994 190.161C158.816 190.561 160.676 191.053 162.285 192.002C162.316 192.281 162.444 192.544 162.648 192.716C162.364 192.983 162.244 193.405 162.493 193.801C163.189 194.907 164.389 195.536 165.466 196.243L165.536 196.289C166.595 196.992 167.664 197.68 168.741 198.355C170.931 199.727 173.167 201.023 175.434 202.262C179.081 204.255 182.806 206.135 186.599 207.84C186.371 208.961 186.454 210.116 186.283 211.244L186.257 211.405C186.184 211.823 186.283 212.173 186.571 212.447L186.601 212.475L186.601 212.471L186.628 212.496L186.637 212.503L186.634 212.501C186.667 212.531 186.702 212.56 186.736 212.584L186.781 212.613C187.059 212.781 187.416 212.779 187.7 212.63L187.733 212.613L187.787 212.581C188.163 212.365 188.422 211.83 188.266 211.405C187.883 210.359 187.738 209.244 187.385 208.191L187.665 208.317L188.035 208.478C192.033 210.208 196.475 211.664 200.831 210.485C202.756 209.964 204.555 208.862 205.518 207.065C206.466 205.297 206.6 203.244 206.65 201.277C206.713 198.85 206.582 196.386 206.263 193.979C206.048 192.364 205.788 190.718 205.387 189.119C205.593 188.937 205.745 188.676 205.785 188.353C205.974 186.826 205.643 185.239 205.44 183.72C205.243 182.237 205.024 180.757 204.777 179.281C204.277 176.301 203.697 173.328 203.022 170.383C201.82 165.141 200.232 159.993 198.321 154.968L198.154 154.53C196.388 149.937 194.344 145.442 191.497 141.407C190.135 139.476 188.695 137.726 186.771 136.335C184.968 135.031 182.934 134.093 180.835 133.376C178.735 132.658 176.575 132.177 174.378 131.878C172.146 131.574 169.79 131.387 167.708 130.472C167.972 129.999 167.746 129.362 167.302 129.069C165.811 128.083 164.431 126.8 163.094 125.615ZM115.345 168.485C115.283 168.39 115.134 168.45 115.162 168.563C115.887 171.536 116.568 174.515 117.013 177.545C117.816 183.014 117.668 188.554 117.602 194.064L117.599 194.348C117.565 197.316 117.519 200.284 117.421 203.25C117.371 204.749 117.273 206.263 117.326 207.763C117.355 208.577 117.572 209.346 117.649 210.15C117.716 210.853 117.656 211.567 117.623 212.271C117.6 212.739 118.291 212.719 118.338 212.271L118.398 211.691C118.476 210.958 118.572 210.229 118.813 209.527C119.101 208.683 119.24 207.853 119.34 206.967C119.494 205.608 119.562 204.236 119.621 202.868L119.662 201.922C119.909 196.205 119.901 190.461 119.5 184.75L119.471 184.342C119.074 178.944 118.386 173.111 115.345 168.485ZM130.809 134.461C130.999 134.383 130.932 134.096 130.723 134.146L130.341 134.237C127.545 134.907 124.799 135.633 122.189 136.88C119.578 138.128 117.367 139.99 115.61 142.28C112.195 146.732 110.776 152.142 109.655 157.546C108.41 163.552 107.277 169.58 106.021 175.584L105.787 176.702C104.625 182.294 103.528 187.889 102.72 193.548L102.661 193.958C101.846 199.776 101.356 205.796 102.245 211.63C102.421 212.784 104.341 212.497 104.266 211.357C104.049 208.06 103.894 204.781 104.044 201.477C104.194 198.173 104.504 194.883 104.966 191.607C105.355 188.851 105.934 186.128 106.447 183.394L106.527 182.962C106.956 180.636 107.399 178.312 107.84 175.989L108.5 172.509C109.489 167.3 110.498 162.086 111.637 156.909L111.705 156.604C112.82 151.624 114.464 146.407 117.809 142.452C121.204 138.438 126.063 136.417 130.809 134.461ZM143.143 187.288C143.062 187.106 142.776 187.126 142.688 187.288C142.345 187.923 142.306 188.734 142.241 189.45L142.234 189.524C142.152 190.399 142.079 191.276 142.034 192.154C141.949 193.819 141.908 195.482 141.913 197.15C141.919 198.858 141.953 200.565 142.045 202.272L142.07 202.729C142.154 204.211 142.295 205.865 142.999 207.162C143.255 207.633 143.952 207.494 144.1 207.018C144.586 205.457 144.336 203.607 144.212 202.009L144.115 200.762C144.019 199.515 143.928 198.267 143.855 197.018C143.756 195.31 143.674 193.6 143.595 191.891C143.57 191.336 143.542 190.78 143.513 190.225L143.468 189.393C143.429 188.696 143.433 187.932 143.143 187.288ZM197.763 189.5L197.548 189.292C196.888 188.646 196.054 187.65 195.078 187.712C194.689 187.737 194.441 188.06 194.522 188.443C194.694 189.262 195.529 189.687 196.13 190.187C196.788 190.734 197.409 191.319 198.028 191.91C198.578 192.434 199.106 192.973 199.622 193.528L199.815 193.737C200 193.939 201.316 195.13 201.174 195.439L201.166 195.453C201.126 195.512 201.192 195.594 201.258 195.573C201.826 195.393 201.791 194.906 201.576 194.412C201.163 193.463 200.44 192.585 199.808 191.775C199.179 190.967 198.497 190.214 197.763 189.5ZM141.084 165.703C141.523 164.664 143.143 164.685 144.062 164.748C146.377 164.904 148.882 165.49 150.942 166.573C153.078 167.695 154.516 169.493 155.803 171.481L155.864 171.575C157.118 173.526 158.326 175.835 160.291 177.177C161.292 177.86 162.46 178.484 163.674 178.754C163.757 178.901 163.892 179.017 164.07 179.059L164.152 179.078C164.498 179.155 165.035 179.239 165.499 179.189C165.496 179.416 165.498 179.641 165.492 179.856C165.476 180.473 165.469 181.092 165.469 181.709C165.469 183.001 165.538 184.296 165.484 185.589C165.437 186.732 165.275 187.926 164.726 188.948C164.324 189.698 163.793 190.194 163.152 190.668C161.575 189.706 159.791 189.12 157.981 188.679C155.792 188.146 153.55 187.791 151.411 187.068C150.381 186.72 149.392 186.265 148.495 185.646C147.543 184.99 146.816 184.101 146.068 183.232L145.951 183.097C145.187 182.221 144.354 181.383 143.275 180.908C142.346 180.499 141.122 180.426 140.309 179.793C139.884 179.462 139.849 178.982 139.804 178.489C140.324 178.564 140.875 178.445 141.394 178.384L141.662 178.352C142.153 178.294 142.632 178.23 143.115 178.105C143.204 178.082 143.204 177.947 143.115 177.924C142.544 177.776 141.979 177.713 141.394 177.645L141.256 177.628C140.727 177.558 140.171 177.453 139.652 177.57C139.559 177.215 139.424 176.877 139.236 176.538C138.971 176.062 138.47 175.522 138.402 174.966C138.382 174.8 138.42 174.604 138.499 174.457L138.526 174.407C138.558 174.348 138.597 174.288 138.654 174.251C138.661 174.259 138.674 174.267 138.703 174.276C139.103 174.402 139.451 174.206 139.636 173.905C140.421 174.002 141.278 173.97 142.014 174.002L142.759 174.038C143.554 174.075 144.386 174.091 145.133 173.93C145.238 173.908 145.269 173.734 145.165 173.689C144.246 173.296 143.131 173.17 142.147 173.019C141.598 172.935 141.044 172.871 140.493 172.796C140.126 172.747 139.737 172.665 139.357 172.645C138.403 171.458 138.917 169.586 140.244 169.074C140.727 169.287 141.161 169.163 141.689 169.118C142.216 169.073 142.745 169.042 143.274 169.044C144.334 169.049 145.458 169.328 146.508 169.208C146.678 169.188 146.837 168.961 146.667 168.822C145.864 168.166 144.712 167.952 143.691 167.812L143.48 167.784C143.138 167.739 142.722 167.674 142.291 167.635C142.193 167.444 142.018 167.3 141.755 167.265C141.677 167.254 141.598 167.248 141.52 167.241L141.521 167.233C140.88 167.202 140.908 166.119 141.084 165.703ZM184.987 185.975C184.998 185.993 185.011 186.009 185.024 186.025L185.044 186.049L184.939 186.006L184.987 185.975ZM129.893 163.38C132.592 163.09 135.295 163.151 138.002 163.229C138.219 163.938 138.973 164.542 139.703 164.564C139.131 165.435 139.072 166.614 139.473 167.538C138.622 167.877 137.888 168.486 137.443 169.353C136.825 170.556 136.906 171.894 137.516 173.006C136.995 173.477 136.688 174.244 136.719 174.966C136.753 175.771 137.233 176.459 137.631 177.125C138.062 177.847 138.077 178.481 138.209 179.289C138.403 180.471 139.199 181.188 140.225 181.635L140.17 181.85C139.906 182.879 139.577 183.965 138.821 184.718C137.85 185.686 136.342 185.677 135.058 185.738L134.996 185.741C133.82 185.8 132.645 185.869 131.47 185.936L130.588 185.985C129.235 186.059 127.936 186.068 126.831 185.173C125.027 183.712 123.791 181.295 123.008 179.155C121.366 174.662 121.346 169.732 122.1 165.053C124.629 164.238 127.252 163.664 129.893 163.38ZM152.34 170.833L152.321 170.835C151.765 170.898 151.383 171.349 151.247 171.883C151.049 172.659 151.146 173.361 150.671 174.061C150.182 174.782 149.882 175.359 149.811 176.249C149.781 176.615 149.795 176.981 149.713 177.339L149.654 177.59C149.592 177.858 149.54 178.116 149.571 178.404C149.6 178.666 149.728 178.87 149.991 178.954C150.847 179.228 151.509 178.597 151.73 177.798C151.922 177.108 151.666 176.286 151.936 175.638C152.086 175.279 152.361 174.978 152.517 174.617C152.671 174.258 152.749 173.884 152.774 173.494C152.82 172.757 152.169 171.872 152.532 171.204C152.61 171.062 152.522 170.829 152.34 170.833ZM163.722 163.23C163.142 163.112 162.484 162.841 161.912 163.066C161.618 163.182 161.472 163.54 161.721 163.79C162.152 164.223 162.779 164.247 163.36 164.349L163.412 164.358C164.099 164.485 164.787 164.606 165.476 164.72C166.773 164.935 168.073 165.125 169.378 165.286C170.718 165.452 172.061 165.6 173.407 165.711L173.928 165.754C175.064 165.845 176.247 165.913 177.362 165.739C177.524 165.714 177.498 165.478 177.362 165.436C176.14 165.066 174.8 164.967 173.537 164.811C172.194 164.644 170.854 164.468 169.517 164.259C168.182 164.051 166.849 163.827 165.521 163.579C164.92 163.468 164.321 163.351 163.722 163.23ZM142.785 162.042C143.294 161.862 143.854 161.594 144.406 161.684C145.358 161.838 146.205 162.765 146.958 163.376L146.58 163.303C144.645 162.931 142.082 162.53 140.458 163.76C140.454 163.753 140.45 163.746 140.446 163.739C140.315 163.54 140.163 163.385 139.997 163.214C139.981 163.199 139.966 163.184 139.951 163.168L139.861 163.073L140.066 163.002C140.504 162.847 141.023 162.647 141.105 162.618L141.111 162.616C141.67 162.426 142.229 162.239 142.785 162.042ZM158.684 121.467C158.763 120.443 157.169 120.451 157.09 121.467C156.918 123.686 157.417 125.883 158.491 127.828C158.499 127.842 158.508 127.855 158.516 127.868C157.844 128.218 157.165 128.553 156.47 128.853C155.582 129.237 154.677 129.586 153.755 129.883C152.922 130.151 151.895 130.257 151.194 130.815C149.717 131.992 150.272 134.435 150.556 136.018L150.6 136.268C150.742 137.083 150.844 137.919 150.501 138.701C150.134 139.536 149.393 140.156 148.731 140.753L148.598 140.874C148.012 141.408 147.342 142.057 146.912 142.781C146.52 141.97 145.985 141.307 145.419 140.56C145.016 140.027 145.303 139.852 145.593 139.331C145.872 138.83 146.008 138.296 145.921 137.725C145.76 136.669 144.917 135.907 144.077 135.334C143.086 134.658 141.98 134.157 140.955 133.528C138.85 132.235 136.799 130.757 134.952 129.116C134.901 129.071 134.812 129.13 134.853 129.192C136.312 131.413 138.024 133.332 140.127 134.96C140.979 135.621 141.875 136.169 142.777 136.745L143.036 136.911C143.398 137.146 143.85 137.459 144.014 137.859C144.178 138.26 143.827 138.564 143.638 138.897C143.038 139.954 143.327 140.94 144.039 141.836L144.072 141.877C144.78 142.749 145.316 143.56 145.572 144.674C146.123 147.068 145.356 149.561 144.552 151.807L144.521 151.896C144.086 153.107 143.624 154.309 143.247 155.54L143.143 155.88C142.801 157.012 142.521 158.129 142.905 159.293C143.035 159.688 143.575 159.782 143.799 159.409C144.59 158.096 144.787 156.515 145.282 155.07C145.766 153.662 146.32 152.28 146.787 150.866C147.388 149.046 147.79 147.087 147.572 145.178C147.578 145.167 147.585 145.156 147.591 145.145L147.743 144.81C148.161 143.904 148.563 143.112 149.322 142.39C150.113 141.636 150.972 140.969 151.594 140.057C152.947 138.075 152.11 135.871 151.947 133.704L151.928 133.439C151.899 132.989 151.882 132.377 152.176 132.066C152.507 131.716 153.281 131.626 153.72 131.471C154.853 131.07 155.969 130.602 157.033 130.041C158.045 129.507 159.025 128.917 159.938 128.226L160.401 127.877C161.131 127.326 161.888 126.725 162.378 125.974C162.434 125.888 162.338 125.749 162.236 125.79C161.419 126.122 160.673 126.649 159.908 127.108C159.896 127.08 159.883 127.052 159.867 127.023C158.921 125.311 158.533 123.415 158.684 121.467ZM132.59 133.197C132.265 132.304 130.781 132.373 130.841 133.434C130.886 134.249 131.232 134.985 131.548 135.725L131.582 135.804C131.908 136.575 132.285 137.299 132.737 138.005C133.599 139.356 134.609 140.61 135.688 141.793C136.666 142.865 137.949 143.521 139.428 143.412C140.052 143.366 140.681 143.208 141.227 142.896C141.876 142.526 142.58 141.415 143.408 141.684C143.488 141.71 143.562 141.593 143.493 141.538C142.538 140.768 141.453 141.961 140.539 142.249C139.16 142.682 137.746 142.203 136.859 141.088C135.933 139.925 135.08 138.622 134.302 137.354C133.906 136.711 133.546 136.043 133.234 135.355C132.92 134.66 132.848 133.905 132.59 133.197ZM134.812 127.702C134.852 127.579 134.699 127.462 134.591 127.532C133.963 127.941 133.419 128.481 132.84 128.955C132.197 129.48 131.55 129.995 130.893 130.501C129.935 131.24 131.046 132.601 131.889 131.793C133.043 130.689 134.307 129.246 134.812 127.702ZM138.258 123.381C138.003 122.397 136.495 122.803 136.715 123.775L136.722 123.805C137.138 125.411 136.545 127.046 135.28 128.087L135.233 128.125C134.432 128.766 135.567 129.887 136.36 129.252C138.091 127.866 138.811 125.512 138.258 123.381Z" fill="black"/>
<path fill-rule="evenodd" clip-rule="evenodd" d="M125.157 92.062C125.654 88.0964 127.214 83.8861 128.855 80.1891C132.545 72.3726 140.993 71.2964 148.566 69.6848C156.04 68.5964 163.953 67.6136 171.314 69.7852C175.452 70.7993 177.068 75.7294 176.415 79.62C176.042 82.0444 174.939 84.3389 173.999 86.5858C172.129 91.1999 170.943 96.1398 170.941 101.136C171.069 104.4 171.53 108.127 167.779 109.509C164.211 111.285 163.909 116.097 159.441 118.828C157.634 122.489 152.712 122.812 149.169 123.661C146.93 124.089 144.666 124.405 142.396 124.609C135.821 125.452 130.562 123.546 127.121 117.687C124.818 114.122 123.103 110.005 123.526 105.683C123.948 101.133 124.651 96.6063 125.157 92.062Z" fill="white"/>
<path fill-rule="evenodd" clip-rule="evenodd" d="M148.509 60.1851C148.134 59.7596 147.556 59.9055 147.205 60.242C146.977 60.3093 146.755 60.4094 146.546 60.542C146.074 60.4813 145.579 60.4813 145.115 60.4983C145.003 60.4353 144.882 60.3792 144.751 60.331C143.814 59.9884 142.985 60.1624 142.301 60.6211C141.971 60.3092 141.555 60.1134 141.024 60.143C140.549 60.1695 140.211 60.3928 139.922 60.687C139.633 60.2702 139.166 59.9729 138.584 59.9315C137.77 59.8737 136.989 60.1999 136.341 60.705C135.963 60.2718 135.448 60.0228 134.875 60.0204C134.497 59.9519 134.099 59.9789 133.739 60.0876C133.217 60.2454 132.758 60.5412 132.393 60.925C131.815 60.3713 131.107 59.9729 130.292 60.031C129.236 60.1073 128.36 60.8839 127.954 61.8398C127.239 62.1261 126.579 62.5346 126.028 63.117C125.998 63.1476 125.97 63.1797 125.941 63.212C125.644 63.3217 125.364 63.4771 125.118 63.6818C124.338 64.3312 124.164 65.271 124.422 66.192C124.386 66.3394 124.355 66.4893 124.327 66.6391C123.596 66.7502 122.933 67.1721 122.555 67.8589C122.039 68.8014 122.14 70.0436 122.7 70.9434C122.94 71.3304 123.245 71.6565 123.588 71.9417C123.201 72.8226 123.387 73.8738 124.012 74.5863C124.164 74.8319 124.351 75.0536 124.561 75.2543C124.329 76.1651 124.742 77.1048 125.566 77.5914L125.637 77.768C125.649 77.7973 125.661 77.8265 125.673 77.8554C125.682 77.8929 125.694 77.9292 125.705 77.9657C125.724 78.2889 125.831 78.6061 126.042 78.9049C126.474 79.5173 127.01 79.9166 127.294 80.6315L127.323 80.7066C127.445 81.0449 127.839 81.2836 128.176 81.1792C126.309 85.0135 125.331 89.28 124.659 93.4613C124.324 95.5472 124.065 97.6404 123.856 99.7416L123.65 101.834C123.469 103.694 123.308 105.56 123.307 107.426C123.305 111.647 124.512 115.707 127.103 119.067C129.553 122.242 133.02 124.543 136.937 125.45C140.981 126.384 145.725 126.016 149.352 123.877C150.421 123.248 149.485 121.735 148.397 122.241C146.337 123.199 144.244 123.912 141.961 124.071C139.735 124.227 137.505 123.949 135.394 123.221C131.903 122.015 128.932 119.488 127.022 116.342C126.081 114.792 125.4 113.109 125.038 111.331C124.586 109.115 124.654 106.825 124.82 104.58L124.832 104.427C125.159 100.103 125.592 95.7519 126.29 91.4706C126.908 87.6848 127.857 83.9756 129.09 80.3485C129.573 79.9233 130.113 79.5714 130.691 79.3042C134.923 79.1274 139.163 79.179 143.39 79.4712C146.995 79.7219 150.583 80.1462 154.143 80.7645L154.524 80.8315C155.313 80.9719 156.188 81.0522 156.931 81.3697C157.568 81.6428 157.826 82.1676 157.986 82.8127C158.391 84.4447 158.452 86.2307 158.52 87.9042C158.587 89.54 158.436 91.1895 158.567 92.82C158.678 94.1842 159.028 95.5805 160.038 96.5673C160.567 97.0839 161.217 97.3664 161.827 97.7587C162.222 98.0118 162.389 98.2728 162.338 98.7413C162.229 99.7668 161.403 101.059 162.33 101.937C162.494 102.091 162.776 102.111 162.937 101.937C163.319 101.521 163.848 101.203 164.302 100.867C164.492 100.728 164.334 100.458 164.118 100.554C163.835 100.681 163.545 100.831 163.25 100.962C163.903 100.424 164.832 100.16 165.605 100.004C165.994 99.9261 166.404 99.9034 166.809 99.9397C167.109 100.083 167.416 100.215 167.722 100.345C168.112 100.509 168.505 100.657 168.901 100.798C170.275 101.918 170.931 103.74 170.645 105.522C170.488 106.506 170.035 107.576 169.179 108.15C168.166 108.83 166.809 108.538 165.715 109.043C164.69 109.516 164.066 110.47 163.599 111.458L163.404 111.87C162.971 112.78 162.525 113.667 161.933 114.496C161.248 115.456 160.409 116.318 159.493 117.058C159.049 117.417 158.576 117.739 158.087 118.033L157.953 118.112C157.458 118.403 157.103 118.68 157.07 119.294C157.059 119.508 157.194 119.704 157.368 119.815C158.118 120.29 158.863 119.696 159.487 119.281C160.16 118.834 160.803 118.33 161.399 117.781C162.531 116.74 163.511 115.503 164.264 114.16C164.838 113.137 165.165 111.698 166.072 110.905C166.626 110.422 167.409 110.418 168.101 110.33C168.745 110.247 169.353 110.113 169.926 109.796C172.256 108.501 172.914 105.367 172.362 102.945C172.268 102.537 172.137 102.139 171.975 101.756C172.842 101.901 173.816 101.004 173.465 100.099C173.438 100.031 173.407 99.9664 173.378 99.9007C173.949 99.5245 174.4 98.9543 174.614 98.2085C174.724 97.8229 174.74 97.4334 174.682 97.0572C174.959 96.8712 175.188 96.6154 175.335 96.3008C175.796 96.0879 176.204 95.7694 176.447 95.3142C176.785 94.6862 176.742 94.1079 176.485 93.5871C176.521 93.5216 176.556 93.4547 176.589 93.3863C177.533 92.788 178.191 91.757 178.116 90.6137C178.092 90.2348 177.998 89.8934 177.854 89.5857C177.866 89.5468 177.878 89.5065 177.889 89.4677C178.678 89.0661 179.331 88.4062 179.564 87.5253C179.797 86.6389 179.523 85.7553 178.974 85.0752C179.777 84.4876 180.26 83.667 179.967 82.4258C179.848 81.9212 179.608 81.4619 179.285 81.075C179.286 81.0631 179.289 81.051 179.291 81.0389L179.366 80.9806C180.358 80.1981 180.927 79.2009 180.319 77.9744C180.046 77.423 179.657 77.0386 179.199 76.7856L179.176 76.7133C179.504 76.0105 179.615 75.23 179.389 74.4093C179.204 73.7334 178.767 73.195 178.207 72.8377C178.245 72.535 178.239 72.2125 178.179 71.863C178.079 71.2727 177.786 70.7573 177.357 70.3918C177.341 70.314 177.321 70.2378 177.299 70.1614C177.154 69.6943 176.884 69.1869 176.571 68.8106C176.312 68.4987 176.023 68.3849 175.67 68.3728C175.691 68.0851 175.677 67.7931 175.618 67.4973C175.437 66.5844 174.856 65.7261 173.996 65.3365C173.642 65.1772 173.27 65.1305 172.912 65.1692C172.607 64.5265 172.011 64.0608 171.279 63.9604C170.994 63.9202 170.729 63.9228 170.486 63.959C170.348 63.8946 170.205 63.8372 170.055 63.7849C169.956 63.7501 169.855 63.7179 169.755 63.6859C169.416 63.2656 168.971 62.9294 168.45 62.7274C167.849 62.4931 167.238 62.5171 166.696 62.7139L166.523 62.6777C166.253 62.2091 165.822 61.8463 165.159 61.6817C164.407 61.4956 163.635 61.7553 163.044 62.228C163.041 62.228 163.038 62.228 163.034 62.2265C162.725 61.5344 162.197 61.0525 161.309 61.0859C160.757 61.1073 160.257 61.3819 159.872 61.7728C159.658 61.7459 159.444 61.7218 159.228 61.6979C159.001 61.4313 158.748 61.1824 158.468 60.9589C158.011 60.5919 157.415 60.6215 157.078 61.1381C157.004 61.2506 156.936 61.3644 156.868 61.4782L156.559 61.4568C156.195 60.9654 155.698 60.6334 155.018 60.6068C154.395 60.5812 153.95 60.8866 153.612 61.3135C153.336 61.3068 153.059 61.3016 152.782 61.2974C152.459 60.9239 152.079 60.5946 151.646 60.3215C151.314 60.1126 150.824 60.1837 150.555 60.4622C150.373 60.6515 150.204 60.8491 150.047 61.0537C149.642 60.599 149.094 60.2995 148.509 60.1851ZM168.205 102.697C167.58 102.341 166.74 102.727 166.135 103.029C165.398 103.398 164.666 103.953 164.215 104.649C163.6 105.597 165.044 106.363 165.691 105.513C166.088 104.989 166.405 104.462 166.887 104.004C167.327 103.584 167.966 103.303 168.219 102.748C168.228 102.73 168.225 102.708 168.205 102.697ZM167.766 79.6907L167.755 79.6573C167.577 79.1709 168.352 78.9612 168.529 79.4436C168.796 80.1747 168.488 80.9695 167.766 81.2852C167.566 81.3727 167.337 81.3424 167.217 81.1411C167.115 80.9718 167.162 80.6783 167.361 80.5917C167.767 80.414 167.903 80.1004 167.766 79.6907ZM174.448 78.3307C174.06 77.9879 174.63 77.4215 175.016 77.7628C175.377 78.0811 175.644 78.5135 175.575 79.0109C175.504 79.5178 175.122 79.8756 174.703 80.1285C174.26 80.3967 173.856 79.7024 174.298 79.4349L174.348 79.4045C174.533 79.2892 174.751 79.1307 174.782 78.9039C174.815 78.663 174.612 78.4749 174.448 78.3307ZM172.245 72.2832L172.217 72.263C171.8 71.9653 172.201 71.2683 172.622 71.5694C173.009 71.8456 173.319 72.2044 173.352 72.6992C173.384 73.18 173.139 73.5969 172.819 73.9352C172.463 74.3116 171.896 73.7429 172.251 73.3673C172.597 73.0013 172.665 72.602 172.245 72.2832Z" fill="black"/>
<path fill-rule="evenodd" clip-rule="evenodd" d="M136.148 112.851C135.942 112.494 135.47 112.163 135.037 112.214C133.1 112.441 133.103 114.791 133.851 116.163C134.515 117.38 135.887 118.094 137.262 117.99C138.705 117.88 139.935 117.031 140.476 115.68C140.834 114.786 141 113.137 140.048 112.536C140.03 112.525 140.001 112.528 139.987 112.544C139.53 113.075 139.512 113.873 139.112 114.465C138.741 115.015 138.163 115.469 137.486 115.539C136.981 115.592 136.47 115.41 136.272 114.956C136.165 114.71 136.177 114.577 136.218 114.408L136.254 114.261C136.381 113.747 136.438 113.355 136.148 112.851ZM135.63 102.545C134.619 103.159 133.079 104.592 134.167 106.115C135.446 107.459 137.289 105.919 138.197 105.222C139.038 104.682 139.984 106.071 139.203 106.701C132.643 111.56 129.98 102.705 135.119 101.822C135.684 101.725 135.895 102.355 135.63 102.545ZM146.301 98.3309C145.681 97.4 144.265 97.5371 143.924 98.6418C143.738 99.2402 143.994 99.7782 143.981 100.376C143.97 100.881 144.003 101.443 144.157 101.932C144.51 103.047 145.513 103.834 146.698 103.802C147.88 103.769 148.921 103.021 149.416 101.967C149.913 100.909 149.808 99.8139 149.445 98.7381C149.428 98.6864 149.36 98.6614 149.319 98.7049C148.891 99.1606 148.577 99.6417 148.252 100.152L147.919 100.675C147.665 101.069 147.295 101.572 146.821 101.541L146.749 101.534C146.617 101.522 146.638 101.548 146.536 101.368C146.489 101.285 146.497 101.13 146.474 101.032L146.467 100.999L146.471 100.981C146.481 100.933 146.491 100.844 146.499 100.688L146.501 100.654C146.535 99.926 146.741 98.9906 146.301 98.3309ZM130.578 98.9507C130.689 97.76 129.016 97.4956 128.46 98.3767C128.169 98.8361 128.085 99.4133 128.021 99.9601L127.991 100.22C127.925 100.781 127.899 101.365 128.143 101.889C128.526 102.714 129.361 103.151 130.261 103.081C131.121 103.015 131.906 102.517 132.319 101.76C132.688 101.084 133.054 99.7651 132.607 99.0605C132.58 99.0178 132.526 99.0123 132.489 99.0452C132.065 99.421 131.996 100.106 131.745 100.596C131.485 101.101 131.092 101.593 130.495 101.67C129.925 101.743 129.707 101.431 129.852 100.887C130.04 100.185 130.507 99.7067 130.578 98.9507ZM145.849 91.252L145.576 91.1472C144.638 90.7928 143.351 90.3833 142.589 91.146C142.118 91.6163 142.029 92.3091 142.364 92.883C142.771 93.5782 143.501 93.5954 144.205 93.6978C145.006 93.8143 145.821 94.0357 146.567 94.3514C147.407 94.7071 148.187 95.1505 148.951 95.6457C149.677 96.1163 150.401 96.8854 151.27 97.0304C151.305 97.0363 151.346 97.021 151.355 96.982C151.552 96.1319 151.004 95.2953 150.514 94.6321C149.922 93.8291 149.204 93.1701 148.402 92.5791C147.628 92.0087 146.743 91.5965 145.849 91.252ZM128.818 94.2745L128.734 94.2598C128.166 94.1651 127.651 94.1869 127.222 94.6374C126.895 94.9811 126.769 95.4265 126.925 95.8809C127.069 96.3 127.39 96.7259 127.857 96.8137C129.434 97.1104 131.18 97.0614 132.764 96.8367C133.489 96.7339 134.22 96.6081 134.926 96.4097L135.251 96.3155C135.84 96.1471 136.515 95.9711 136.943 95.5375C137.097 95.3816 137.008 95.1586 136.824 95.0864C136.077 94.7938 135.053 94.9495 134.257 94.9266C133.33 94.9001 132.402 94.8306 131.48 94.7349C130.579 94.6412 129.707 94.4375 128.818 94.2745Z" fill="black"/>
<path fill-rule="evenodd" clip-rule="evenodd" d="M147.552 116.311C146.469 113.771 144.104 111.905 141.381 111.223C139.382 110.723 137.284 110.739 135.246 110.937C134.178 111.04 133.032 111.125 132.026 111.522C131.167 111.861 130.466 112.501 129.94 113.253C129.313 114.144 128.887 115.164 128.587 116.21C128.545 116.358 128.505 116.508 128.468 116.658C128.598 117.447 128.874 118.118 129.604 118.614C130.317 119.099 131.167 119.297 132.015 119.367C132.098 119.327 132.178 119.286 132.252 119.244C133.573 118.488 134.502 116.7 136.17 116.942C137.657 117.158 138.637 119.031 139.521 120.129C142.361 120.46 145.199 119.606 147.51 117.981C147.627 117.425 147.634 116.865 147.552 116.311ZM126.537 114.384C126.765 113.746 127.051 113.129 127.39 112.547C128.511 110.622 130.233 109.089 132.276 108.213C137.11 106.142 143.365 107.602 147.269 110.998C148.602 112.158 149.95 113.864 150.358 115.699C150.48 115.724 150.595 115.787 150.689 115.876C153.51 114.1 156.414 112.391 158.687 109.928C160.338 108.139 161.486 106.022 162.189 103.695C162.246 103.503 162.555 103.531 162.546 103.743C162.543 103.793 162.54 103.842 162.538 103.892C162.567 103.801 162.706 103.848 162.717 103.936C163.095 106.763 163.568 109.759 163.132 112.6C162.872 114.296 162.102 115.537 161.073 116.877C159.97 118.314 158.722 119.65 157.446 120.931C156.636 121.745 155.79 122.683 154.798 123.279C153.645 123.972 152.336 124.499 151.105 125.033C149.853 125.579 148.582 126.083 147.287 126.52C144.698 127.396 142.023 128.002 139.301 128.267C137.121 128.479 134.63 128.71 132.541 127.889C130.94 127.261 129.647 126.124 128.622 124.757C127.506 123.268 126.624 121.572 126.136 119.784C125.63 117.926 126.431 114.684 126.537 114.384Z" fill="black"/>
</g>
<defs>
<clipPath id="clip0_7984_5109">
<rect width="201.335" height="189.524" fill="white" transform="translate(0.666016 0.187988)"/>
</clipPath>
</defs>
</svg>
