<svg width="202" height="190" viewBox="0 0 202 190" fill="none" xmlns="http://www.w3.org/2000/svg">
<g clip-path="url(#clip0_7984_5137)">
<path fill-rule="evenodd" clip-rule="evenodd" d="M41.6784 211.155C39.0161 211.027 40.0869 206.368 40.2779 204.657C42.3857 198.408 41.8902 191.591 42.7192 185.041C43.2357 178.927 43.8993 172.831 44.4574 166.722C45.5537 154.32 53.426 129.072 62.4098 125.012C63.5414 120.045 68.2156 115.408 74.1294 115.408C78.1629 110.631 83.0178 107.27 89.2448 107.948C91.818 108.066 94.3136 110.796 96.7793 111.323C98.1599 111.514 110.412 111.023 112.866 112.482C114.576 113.36 116.119 114.982 115.616 117.048C114.814 119.551 117.307 116.843 122.506 119.514C133.108 125.884 126.773 134.406 126.492 134.67C133.108 143.879 138.891 151.35 141.567 162.606C143.301 170.962 143.105 179.589 144.558 187.989C145.071 190.901 145.858 193.714 146.71 196.542C147.633 200.244 148.082 209.469 148.59 209.551C149.517 209.782 148.055 211.685 147.073 211.687C119.849 216.204 92.1963 211.874 64.8262 211.166C57.1129 210.898 49.3913 210.836 41.6784 211.155Z" fill="white"/>
<path fill-rule="evenodd" clip-rule="evenodd" d="M81.2332 182.45C79.8927 182.357 78.5521 182.268 77.2108 182.181C76.3008 182.122 75.3907 182.066 74.4805 182.01L72.1597 181.87L71.2042 181.811C70.5586 181.771 69.825 181.608 69.3736 182.181C69.1929 182.41 69.1022 182.707 69.2707 182.979C69.6593 183.606 70.2562 183.584 70.9313 183.612C71.5683 183.637 72.2053 183.663 72.8423 183.687C74.2073 183.74 75.5722 183.79 76.9376 183.829C78.3706 183.869 81.2352 183.926 81.2352 183.926C81.2352 183.926 82.9811 183.963 84.4259 183.963C84.6153 183.964 84.8046 183.967 84.9938 183.967C90.37 183.991 95.7448 184.014 101.121 183.964C101.112 183.974 101.103 183.985 101.097 183.999C100.708 184.918 100.671 186.09 100.681 187.076C100.692 188.207 100.844 189.324 101.104 190.424C102.037 194.364 104.443 197.893 107.183 200.81L107.273 200.905C107.919 201.588 108.661 202.274 109.058 203.145C109.463 204.033 109.604 205.073 109.804 206.027L109.827 206.137L110.609 209.751C110.858 210.899 110.928 212.574 111.837 213.402C112.684 214.175 113.807 213.771 114.206 212.776C114.517 212 114.207 211.147 114.022 210.37L112.577 204.293C112.34 203.302 112.08 202.304 111.568 201.414C111.043 200.502 110.273 199.841 109.488 199.165C108.001 197.884 106.635 196.418 105.481 194.83C104.327 193.243 103.341 191.494 102.649 189.654C102.303 188.733 102.019 187.777 101.823 186.812C101.637 185.897 101.639 184.949 101.439 184.044C101.426 183.981 101.373 183.939 101.313 183.92C101.327 183.879 101.305 183.825 101.249 183.821L96.8517 183.538C92.9434 183.286 89.0352 183.027 85.1303 182.732L84.4403 182.682C83.3595 182.69 82.6027 182.45 81.2332 182.45ZM124.224 165.012C124.271 164.73 123.916 164.555 123.752 164.813C121.88 167.765 120.977 170.972 120.596 174.427C120.26 177.476 120.359 180.569 120.527 183.626C120.705 186.887 120.914 190.146 121.124 193.405L121.448 198.402L122.26 210.931C122.318 211.827 122.521 212.642 123.293 213.058C123.39 213.14 123.492 213.213 123.611 213.276C124.027 213.499 124.58 213.387 124.821 212.959L124.724 213.022C124.64 213.075 124.735 213.001 125.008 212.801L125.24 212.5C125.408 212.247 125.516 211.998 125.559 211.697C125.626 211.229 125.539 210.716 125.509 210.246L124.976 202.031C124.562 195.644 124.079 189.259 123.715 182.87C123.545 179.892 123.426 176.911 123.507 173.927C123.587 170.961 123.738 167.944 124.224 165.012ZM108.028 110.019L107.924 110.001C104.205 109.384 100.161 109.499 96.7628 111.292C96.7347 111.307 96.7476 111.354 96.7791 111.353L97.873 111.309C101.336 111.173 104.788 111.093 108.193 111.907L108.542 111.991C109.768 112.29 111.049 112.656 112.034 113.467C112.975 114.241 113.444 115.436 113.895 116.536L113.955 116.681C114.412 117.767 114.991 118.797 115.994 119.476C117.292 120.356 118.853 120.248 120.342 120.368C122.963 120.578 125.106 122.479 126.173 124.804C126.818 126.213 127.094 127.791 127.148 129.331C127.176 130.115 127.18 130.93 127.076 131.709C127.042 131.958 126.735 132.865 126.578 132.843C126.229 132.795 125.91 132.976 125.802 133.255C124.94 132.423 124.054 131.615 123.14 130.835C120.86 128.893 118.405 127.133 115.819 125.62C113.845 124.466 111.763 123.322 109.607 122.457C109.778 122.454 109.947 122.487 110.11 122.572C110.181 122.61 110.252 122.52 110.196 122.461C109.517 121.746 108.703 121.644 107.883 121.835C107.708 121.779 107.533 121.725 107.358 121.674C107.27 121.649 107.227 121.769 107.298 121.816L107.499 121.945C106.605 122.244 105.727 122.833 105.031 123.298C103.034 124.634 101.276 126.266 99.4944 127.868L99.1704 128.158C97.6018 129.559 95.9933 130.921 94.2112 132.045C93.2783 132.633 92.2985 133.177 91.2707 133.582C90.3892 133.929 88.9539 134.148 88.541 135.08C88.1741 135.526 88.3274 136.095 88.7572 136.395C89.4821 137.193 90.9321 136.678 91.7958 136.346C92.8371 135.945 93.8459 135.463 94.808 134.898C96.6758 133.801 98.398 132.437 100.002 130.987C101.678 129.471 103.258 127.861 104.888 126.299C105.594 125.621 106.284 124.928 106.991 124.252L107.346 123.916C107.707 123.577 108.221 123.049 108.771 122.73C109.807 123.348 110.859 123.94 111.885 124.574C113.318 125.459 114.709 126.408 116.078 127.388C118.713 129.275 121.211 131.388 123.53 133.653C127.783 137.807 131.406 142.551 134.571 147.573L134.812 147.956C136.61 150.831 138.311 153.798 139.517 156.975C140.844 160.47 141.49 164.146 141.84 167.857C142.188 171.541 142.306 175.243 142.695 178.924C143.093 182.698 143.879 186.39 144.773 190.074L144.986 190.948C145.795 194.247 146.629 197.547 147.045 200.925C147.267 202.729 147.401 204.558 147.37 206.377C147.34 208.206 147.053 209.995 146.821 211.805C146.732 212.499 147.414 213.077 148.025 213.169C148.727 213.275 149.33 212.827 149.548 212.174C150.228 210.141 150.352 207.893 150.33 205.758C150.309 203.591 150.032 201.438 149.643 199.308C148.878 195.119 147.698 191.017 146.71 186.878C145.839 183.23 145.255 179.575 144.94 175.838C144.613 171.961 144.418 168.07 143.821 164.221C143.233 160.421 142.125 156.791 140.455 153.326C138.934 150.171 137.038 147.201 135.051 144.322C132.637 140.827 129.986 137.501 127.023 134.471C127.289 134.459 127.562 134.373 127.813 134.217C128.581 133.737 128.939 132.8 129.049 131.944C129.306 129.942 129.244 127.852 128.729 125.895C127.899 122.738 125.744 119.932 122.621 118.794C121.818 118.501 120.963 118.394 120.111 118.373C119.303 118.353 118.42 118.458 117.64 118.202C116.399 117.794 115.866 116.331 115.4 115.222L115.379 115.171C114.781 113.758 114.064 112.547 112.769 111.665C111.388 110.723 109.657 110.295 108.028 110.019ZM72.6937 115.607C71.5763 115.219 70.1791 115.571 69.0863 115.91C67.8689 116.287 66.7438 116.983 65.7792 117.809C64.7616 118.68 63.9206 119.755 63.3265 120.956L63.2697 121.072C62.727 122.187 62.109 123.717 62.3826 124.941C62.3905 124.976 62.3994 125.009 62.4096 125.041C60.1924 126.133 58.1448 127.501 56.3617 129.234C54.2855 131.253 52.5274 133.549 51.0397 136.03C45.1308 145.885 44.0908 157.72 43.393 168.958L43.2189 171.807C42.84 177.96 42.3965 184.099 41.2446 190.167L41.1605 190.605C39.9292 196.958 38.1665 203.36 38.3451 209.878C38.3987 211.831 41.2836 211.817 41.3672 209.878C41.6821 202.578 43.385 195.529 44.5382 188.343C46.5672 175.701 45.5505 162.666 48.4255 150.15C49.5537 145.239 51.3014 140.474 53.7971 136.09C55.0299 133.924 56.4404 131.831 58.0926 129.962C59.5141 128.354 60.9916 126.807 62.6527 125.455C63.1837 125.987 64.2442 125.716 64.5214 124.941C64.7118 124.408 64.6562 123.785 64.7784 123.227C64.8918 122.709 65.0482 122.195 65.2565 121.707C65.6717 120.735 66.2811 119.801 66.9846 119.014C67.7446 118.164 68.6181 117.457 69.5955 116.874C70.5796 116.286 71.6559 116.111 72.6937 115.681C72.7287 115.667 72.732 115.62 72.6937 115.607ZM68.3522 183.174C68.3505 183.123 68.2901 183.099 68.2529 183.133C67.8611 183.493 67.6243 184.011 67.336 184.455C67.0034 184.966 66.6542 185.467 66.2881 185.955C65.5544 186.933 64.7376 187.855 63.9144 188.758C63.1488 189.598 62.3327 190.402 61.4862 191.161C60.569 191.982 59.5412 192.715 58.7079 193.625C56.9692 195.524 56.6882 198.129 56.3214 200.576L56.2812 200.84C56.0575 202.292 55.8571 203.748 55.6764 205.206C55.5885 205.915 55.5008 206.625 55.4292 207.336L55.4073 207.561C55.3435 208.257 55.3262 208.963 55.7258 209.572C56.1535 210.222 57.126 210.45 57.7041 209.826C58.6975 208.755 58.5112 206.851 58.6404 205.472C58.7472 204.332 58.8683 203.193 59.0039 202.056L59.0729 201.488C59.2327 200.194 59.3624 198.875 59.6582 197.604C59.9189 196.485 60.4158 195.64 61.2311 194.829C62.0524 194.012 62.9058 193.25 63.6638 192.37C64.4679 191.437 65.1932 190.437 65.8467 189.393C66.4057 188.5 66.8537 187.528 67.2642 186.557L67.3322 186.396C67.729 185.449 68.3832 184.217 68.3522 183.174ZM54.0102 142.514C54.0015 142.382 53.8064 142.38 53.8035 142.514C53.7789 143.65 53.7552 144.785 53.7316 145.921C53.5421 155.072 53.6589 164.244 52.7412 173.364C52.3083 177.663 51.5113 181.9 50.589 186.119C50.1171 188.278 49.622 190.431 49.1515 192.59C48.6931 194.695 48.2014 196.809 47.8377 198.933C47.4804 201.02 47.1603 203.123 47.0167 205.238L46.999 205.513C46.9371 206.537 46.6419 208.044 47.2056 208.951C47.8164 209.935 48.9858 209.953 49.6403 209.014C50.2548 208.132 50.102 206.565 50.2106 205.513C50.3209 204.442 50.4376 203.37 50.5701 202.301C50.8287 200.217 51.1694 198.137 51.5237 196.066C52.2616 191.755 53.332 187.497 54.122 183.192C54.9317 178.781 55.5073 174.338 55.5315 169.847C55.5556 165.318 55.0764 160.797 54.8345 156.278C54.5887 151.688 54.3094 147.101 54.0102 142.514ZM97.2213 114.052C96.9757 113.225 96.109 112.707 95.2634 112.94C94.4885 113.153 93.8488 114.094 94.1517 114.899C94.4823 115.777 95.0601 116.526 95.5472 117.324C95.9971 118.062 96.6534 118.643 97.1117 119.367L96.6066 119.912C96.3539 120.184 96.1006 120.454 95.8443 120.719L94.9634 121.632C94.2774 122.342 93.587 123.047 92.8772 123.732C90.7899 125.746 88.6696 127.694 86.332 129.419C85.7999 129.811 85.2636 130.202 84.7123 130.567L84.5067 130.703C84.1285 130.951 83.7065 131.195 83.2496 131.153C82.1394 131.051 81.1362 129.871 80.3733 129.137L80.3333 129.099C78.4426 127.299 76.6919 125.331 75.1613 123.216C74.8215 122.746 74.4924 122.268 74.1719 121.784C74.912 120.919 74.7352 119.231 74.776 118.182C74.8048 117.445 74.807 116.707 74.811 115.969L74.813 115.821C74.822 115.343 74.8435 114.885 74.5337 114.492C74.5156 114.469 74.4783 114.47 74.4553 114.482C74.0309 114.704 73.9001 115.077 73.7191 115.495L73.7001 115.538C73.4797 116.039 73.2687 116.546 73.0552 117.05C72.8316 117.578 72.6266 118.114 72.4189 118.648C72.3222 118.897 72.2299 119.147 72.1396 119.397C72.0847 119.558 72.0278 119.717 71.9694 119.876L71.9556 119.889C71.8785 119.954 71.813 120.023 71.7567 120.095C71.5199 120.213 71.3317 120.429 71.2434 120.746C71.0512 121.437 71.4489 122 71.8036 122.548C73.2446 124.775 74.8872 126.897 76.713 128.822C77.62 129.779 78.5739 130.692 79.5671 131.558L79.7408 131.709C80.633 132.476 81.6017 133.203 82.7932 133.382C84.1877 133.592 85.3225 132.898 86.39 132.099L86.4965 132.019C87.5085 131.252 88.5 130.459 89.4607 129.629C91.4195 127.938 93.2829 126.121 94.9367 124.128C96.5454 122.19 98.1355 120.022 99.127 117.69C99.1875 117.548 99.0285 117.399 98.904 117.518C98.4197 117.979 97.9536 118.465 97.4931 118.958C97.4803 118.233 97.6141 117.502 97.5397 116.772C97.4489 115.885 97.4751 114.906 97.2213 114.052Z" fill="black"/>
<path fill-rule="evenodd" clip-rule="evenodd" d="M64.2261 80.1723C65.4728 74.9144 68.1986 70.0213 72.5625 66.0668C85.6945 53.0788 109.81 60.1285 109.701 79.7005C110.172 81.9864 110.363 84.3369 110.207 86.6682C110.143 87.6629 109.713 89.0511 110.291 89.9463C111.595 91.6211 112.353 92.8556 111.909 95.0834C111.538 97.0286 110.215 98.4067 108.429 99.1393C107.358 99.4468 106.342 100.117 105.945 101.137C103.561 105.504 101.795 109.136 98.0364 112.111C97.0666 112.877 87.1199 117.472 83.8425 117.472C74.2477 117.472 62.1547 113.995 61.954 103.274C61.9193 100.919 62.3324 98.5365 62.5915 96.2002C63.2223 90.8687 62.9998 85.344 64.2261 80.1723Z" fill="white"/>
<path fill-rule="evenodd" clip-rule="evenodd" d="M64.4426 77.5424C64.4396 77.4773 64.3464 77.4627 64.3284 77.5269C63.9717 78.7927 63.7696 80.0822 63.4907 81.3677C63.2221 82.6059 62.9685 83.8477 62.7574 85.0968C62.3592 87.4543 62.0236 89.8178 61.7115 92.1875L61.6339 92.7801C61.0914 96.9498 60.1954 101.294 60.9789 105.488C61.6474 109.067 63.8888 111.951 66.7774 114.066C69.5125 116.068 72.8287 117.353 76.1214 118.083C79.6553 118.868 83.8442 119.102 86.7196 116.509C87.8707 115.471 86.3015 113.411 85.0527 114.348C82.1205 116.547 78.3903 115.899 75.0816 115.024L74.9814 114.997C72.0774 114.224 69.1541 113.051 66.8486 111.072C64.2997 108.884 63.0394 105.848 62.8938 102.518C62.8121 100.647 62.9865 98.7783 63.1745 96.9184L63.1955 96.7118C63.4114 94.5849 63.6378 92.4589 63.8468 90.3311C64.0375 88.3908 64.202 86.4393 64.2889 84.4903L64.3295 83.5074C64.414 81.5255 64.5277 79.5147 64.4426 77.5424ZM98.8322 61.0753C94.0606 58.5902 88.5769 57.7007 83.2667 58.5348C78.1617 59.3365 73.4767 61.9717 69.9748 65.7503C68.2651 67.5952 66.7476 69.7292 65.7778 72.0605C65.2961 73.2186 64.9189 74.4268 64.718 75.6676C64.6147 76.3056 64.5132 76.9665 64.4938 77.6132C64.4759 78.212 64.6516 78.7736 64.6308 79.3823C64.6277 79.4775 64.7735 79.4958 64.7957 79.4046C64.9616 78.7259 65.3612 78.2127 65.6119 77.568C65.7993 77.0867 66.0119 76.6167 66.2283 76.1482L66.4142 75.7467C66.9539 74.5799 67.5991 73.461 68.2373 72.3462C69.5224 70.1007 71.1713 68.06 73.1021 66.3381C76.4921 63.3148 80.8412 61.3633 85.3804 61.0119C90.0918 60.647 94.8705 61.7704 98.8941 64.259C102.917 66.7474 105.96 70.6157 107.539 75.0695C108.336 77.3171 108.776 79.6589 108.878 82.0399C108.93 83.2452 108.882 84.4606 108.797 85.6635L108.755 86.2371C108.706 86.9251 108.673 87.6103 108.775 88.2816C108.05 88.0552 107.289 87.9613 106.526 88.0734C105.391 88.2399 104.713 88.7051 104.205 89.7191C104.178 89.772 104.231 89.8249 104.284 89.7986C104.944 89.4692 106.011 89.6426 106.71 89.8153C107.437 89.995 108.092 90.3075 108.71 90.7301C109.853 91.5113 110.748 92.722 110.968 94.1109C111.181 95.4527 110.63 96.8112 109.705 97.7728C109.229 98.2681 108.66 98.6963 108.023 98.9631C107.25 99.2871 106.485 99.277 105.8 99.8118C105.378 100.142 105.48 100.708 105.767 101.075C104.323 102.658 103.043 104.39 101.6 105.98C100.931 106.716 100.268 107.454 99.6268 108.214L99.3875 108.501C98.7475 109.273 97.7292 110.09 97.4367 111.061C97.2548 111.666 97.9019 112.457 98.5561 112.181C99.5596 111.759 100.276 110.659 100.954 109.815L100.998 109.761C101.709 108.887 102.341 107.964 102.918 106.997L103.108 106.678C104.151 104.922 105.186 103.101 105.852 101.172C105.896 101.217 105.942 101.258 105.991 101.293C106.95 101.975 108.344 101.451 109.301 101.008C110.205 100.59 111.034 99.9609 111.68 99.2029C113.085 97.5544 113.732 95.4194 113.263 93.28C112.866 91.4676 111.61 89.7048 109.964 88.7881C110.724 87.913 111.038 86.7333 111.248 85.58C111.515 84.1078 111.568 82.599 111.496 81.1061C111.351 78.1326 110.586 75.2016 109.404 72.4787C107.288 67.6068 103.548 63.5315 98.8322 61.0753ZM108.875 93.586C107.873 93.3983 106.94 93.353 105.974 93.7769C104.926 94.237 104.189 94.9966 103.503 95.8866C102.723 96.8989 104.722 98.0049 105.226 96.661L105.241 96.6195C105.376 96.2216 105.618 95.837 105.924 95.483C106.016 95.6238 106.139 95.7478 106.283 95.8188C106.458 95.9048 106.725 95.8453 106.767 95.6219C106.814 95.374 106.762 95.0735 106.619 94.8637L106.6 94.835C107.294 94.2756 108.13 93.867 108.875 93.7355C108.949 93.7223 108.948 93.5998 108.875 93.586Z" fill="black"/>
<path fill-rule="evenodd" clip-rule="evenodd" d="M77.5169 108.107C78.4429 107.729 79.2692 107.099 79.8732 106.293C80.0832 106.014 80.1377 105.718 80.0936 105.448C80.0441 105.143 79.8643 104.868 79.6191 104.683C79.3731 104.498 79.0655 104.406 78.768 104.453C78.5095 104.493 78.2522 104.635 78.0486 104.929L78.0061 104.987C77.6469 105.473 77.179 105.872 76.6457 106.129C76.1318 106.377 75.557 106.493 74.9622 106.425C73.8293 106.297 73.0484 105.684 72.2185 104.852C72.1156 104.747 72.0127 104.639 71.9092 104.528C71.8439 104.429 71.7533 104.365 71.6526 104.331C71.5409 104.293 71.4144 104.296 71.2987 104.336C71.187 104.375 71.0871 104.449 71.0202 104.547C70.9566 104.641 70.9205 104.756 70.9322 104.889C71.0082 105.751 71.459 106.521 72.0993 107.126C72.8104 107.797 73.7531 108.262 74.6406 108.424C75.6184 108.604 76.6147 108.475 77.5169 108.107ZM74.1794 94.8003C73.1391 95.4329 71.5541 96.9079 72.6732 98.476C73.9904 99.8587 75.887 98.2734 76.8215 97.5564C77.6881 97.0007 78.6618 98.4298 77.8578 99.0787C71.1045 104.081 68.3639 94.9657 73.6532 94.0566C74.2356 93.9564 74.4519 94.6046 74.1794 94.8003ZM86.2813 88.9819C86.1664 87.5547 83.9936 87.2306 83.7775 88.6429C83.5839 89.908 83.8118 91.0701 84.3814 92.2091C84.9257 93.2973 86.2937 92.7896 86.3971 91.7987C86.5358 90.4705 86.3528 89.8697 86.2813 88.9819ZM69.7419 88.3501C69.439 87.9532 69.0016 87.6822 68.4776 87.8353C66.8404 88.3139 67.3229 90.6392 67.8979 91.771C68.2103 92.3857 69.2202 92.5415 69.6766 92.0003C70.4205 91.1178 70.7767 89.3554 69.831 88.4861C69.8054 88.4411 69.7769 88.3958 69.7419 88.3501ZM84.4045 82.7369L84.1459 82.6917C83.3458 82.5532 82.351 82.4202 81.7851 83.0637C81.4849 83.4049 81.3816 84.0391 81.7851 84.3657C82.4948 84.9404 83.2794 84.7177 84.1299 84.7663C84.8308 84.8066 85.5044 84.9226 86.1796 85.1157C87.6607 85.5392 88.8676 86.3123 90.1326 87.1612C90.2986 87.2725 90.4681 87.0602 90.3888 86.9048C89.6586 85.474 88.2434 84.2986 86.8259 83.5821C86.0694 83.1997 85.2415 82.8825 84.4045 82.7369ZM71.2344 82.096L71.0364 82.1365C68.8823 82.5869 66.0836 83.4867 65.0635 85.6034C65.0247 85.9027 65.0657 85.9669 65.0991 86.0088L65.1102 86.0227C65.1378 86.0585 65.1597 86.1079 65.2894 86.1486C65.3254 86.14 65.3617 86.1309 65.3985 86.1213C65.866 85.9987 66.236 85.8298 66.5941 85.6546L66.9825 85.4632C67.433 85.2422 67.8875 85.0293 68.3692 84.8721C69.3972 84.5366 70.4545 84.3004 71.5282 84.1742C71.7609 84.1469 71.985 84.0683 72.1618 83.9336C72.3296 83.8058 72.4578 83.6288 72.5163 83.3936C72.592 83.0892 72.5703 82.8587 72.407 82.5841C72.2842 82.3778 72.1085 82.2348 71.9068 82.1528C71.7012 82.0691 71.4671 82.0493 71.2344 82.096Z" fill="black"/>
<path fill-rule="evenodd" clip-rule="evenodd" d="M71.2619 110.227C72.5448 109.084 73.9829 106.785 75.8259 108.604C76.2817 109.118 76.4663 110.27 77.1634 110.496C78.0891 110.797 79.0065 109.817 79.322 109.064C80.6128 104.884 75.2769 103.737 72.2372 104.412C70.7522 105.022 69.6584 107.478 69.5923 108.76C69.5496 109.621 70.2783 110.888 71.2619 110.227ZM61.5832 103.783C61.5958 103.728 61.6133 103.678 61.6343 103.632C62.2017 103.418 62.6507 103.636 62.9281 104.045C62.919 104.147 62.8887 104.25 62.8696 104.35C63.0837 104.802 63.2768 105.36 63.5669 105.75C63.6242 105.754 63.6836 105.748 63.7406 105.732C68.5501 106.234 66.202 101.2 71.0801 99.9496C74.8509 99.3273 81.6662 100.04 83.445 103.966C84.8479 110.238 91.9813 105.868 94.3234 102.606C96.8224 99.6382 98.4383 96.011 99.9963 92.4914C100.326 91.7465 101.353 92.2791 101.241 92.9938C102.681 95.8838 102.634 99.3552 102.99 102.521C103.597 108.838 104.188 117.696 98.3214 121.553C90.6777 130.196 71.5906 133.246 62.7745 125.304C59.7227 118.74 60.0989 110.733 61.5832 103.783Z" fill="black"/>
<path d="M110.223 77.5612C110.223 77.5612 112.553 78.5636 112.475 77.6384C112.397 76.7131 110.379 74.5542 110.379 74.5542L110.612 71.0074C111.698 60.5985 108.282 53.5049 102.537 49.2642C101.527 48.4932 100.052 45.6404 97.956 45.7175C95.2385 45.8717 96.7137 46.0259 93.9186 45.6404C92.3658 45.4091 89.4154 41.1684 86.3098 42.5562C84.6017 43.3273 83.9029 44.4067 81.9619 44.5609C80.7972 44.7151 79.3997 43.1731 78.2351 43.5586C76.4493 44.0983 74.7412 45.7946 74.1977 46.0259C61.8527 50.1895 61.6975 70.8532 61.6975 70.8532C61.6975 70.8532 49.896 78.4094 55.7191 78.7178C74.1977 79.643 78.9338 82.1875 83.5147 81.8019C88.0955 81.4164 92.1329 79.643 97.2572 77.7926C103.624 74.7084 110.223 77.5612 110.223 77.5612ZM73.0331 51.5002C76.7599 43.0188 78.6233 44.0983 78.6233 44.0983C79.8655 44.1754 80.0208 45.2548 80.0208 45.2548C79.4773 45.1777 73.0331 51.5002 73.0331 51.5002ZM83.5923 48.4932C81.8066 49.6498 74.8965 57.8227 75.6729 55.818C76.294 54.1989 83.437 43.867 87.3191 42.8646C88.639 42.4791 90.7353 44.9464 90.7353 44.9464C85.5334 46.4885 84.3687 47.9535 83.5923 48.4932ZM84.524 55.4325C82.8936 56.6662 82.8159 55.5867 82.8159 55.5867C84.1358 54.276 94.928 46.103 98.1889 46.874C99.1206 47.1053 100.673 48.8787 100.673 48.8787C96.9466 48.6474 86.3098 54.0447 84.524 55.4325Z" fill="black"/>
</g>
<defs>
<clipPath id="clip0_7984_5137">
<rect width="201.335" height="189.524" fill="white" transform="translate(0.33252 0.187988)"/>
</clipPath>
</defs>
</svg>
