<svg width="32" height="32" viewBox="0 0 32 32" fill="none" xmlns="http://www.w3.org/2000/svg">
<path d="M3.4375 9C3.4375 8.17157 4.10907 7.5 4.9375 7.5H27.0625C27.8909 7.5 28.5625 8.17157 28.5625 9C28.5625 9.82843 27.8909 10.5 27.0625 10.5H4.9375C4.10907 10.5 3.4375 9.82843 3.4375 9Z" fill="currentColor"/>
<path d="M3.4375 16C3.4375 15.1716 4.10907 14.5 4.9375 14.5H27.0625C27.8909 14.5 28.5625 15.1716 28.5625 16C28.5625 16.8284 27.8909 17.5 27.0625 17.5H4.9375C4.10907 17.5 3.4375 16.8284 3.4375 16Z" fill="currentColor"/>
<path d="M3.4375 23C3.4375 22.1716 4.10907 21.5 4.9375 21.5H27.0625C27.8909 21.5 28.5625 22.1716 28.5625 23C28.5625 23.8284 27.8909 24.5 27.0625 24.5H4.9375C4.10907 24.5 3.4375 23.8284 3.4375 23Z" fill="currentColor"/>
</svg>
