<svg width="32" height="32" viewBox="0 0 32 32" fill="none" xmlns="http://www.w3.org/2000/svg">
<path fill-rule="evenodd" clip-rule="evenodd" d="M9.95379 25.3068H6.00879V11.7838H9.95379V25.3068ZM7.97179 9.84976C7.59259 9.84326 7.22375 9.72496 6.91152 9.50968C6.59929 9.2944 6.35757 8.99173 6.21666 8.63962C6.07576 8.28751 6.04194 7.90164 6.11946 7.5304C6.19697 7.15915 6.38237 6.81905 6.65239 6.55274C6.92242 6.28644 7.26506 6.10578 7.63735 6.03342C8.00964 5.96107 8.395 6.00024 8.74512 6.14601C9.09523 6.29179 9.39452 6.53769 9.60545 6.85288C9.81637 7.16807 9.92955 7.53851 9.93079 7.91776C9.93162 8.17222 9.88132 8.42425 9.78289 8.65891C9.68446 8.89356 9.5399 9.10605 9.35779 9.28376C8.98684 9.6464 8.48855 9.84923 7.96979 9.84876L7.97179 9.84976ZM25.7218 25.3058H21.7778V17.5788C21.7778 15.9328 21.1988 14.6408 18.8948 14.6408C16.5568 14.6408 15.8708 15.7278 15.8708 17.5788V25.3068H11.9258V11.7838H15.8708L16.0218 13.0528H16.0848C16.6848 11.9378 18.3988 11.2898 20.4438 11.4378C23.7208 11.6758 25.7378 13.7758 25.7258 17.5188V25.3088L25.7218 25.3058Z" fill="#0A0B11"/>
</svg>
